<?xml version="1.0" encoding="UTF-8" standalone="no"?>
<!-- Created with Inkscape (http://www.inkscape.org/) -->

<svg
   width="1035.7368mm"
   height="242.368mm"
   viewBox="0 0 1035.7368 242.36799"
   version="1.1"
   id="svg32084"
   xmlns="http://www.w3.org/2000/svg"
   xmlns:svg="http://www.w3.org/2000/svg"
   xmlns:rdf="http://www.w3.org/1999/02/22-rdf-syntax-ns#"
   xmlns:cc="http://creativecommons.org/ns#">
  <defs
     id="defs32081" />
  <g
     id="layer1"
     transform="translate(182.42512,95.642982)">
    <text
       style="font-variant:normal;font-weight:bold;font-stretch:normal;font-size:23.3055px;font-family:'Myriad Pro';-inkscape-font-specification:MyriadPro-Bold;writing-mode:lr-tb;display:inline;fill:#808080;fill-opacity:1;fill-rule:nonzero;stroke:none;stroke-width:0.731534"
       id="text28005"
       x="-176.15543"
       y="115.38648"><tspan
         x="-176.15543 -161.0768 -150.86902 -137.04889 -123.50842 -117.09943 -107.03148 -100.62248 -92.09269 -85.683693 -72.283058"
         y="115.38648"
         id="tspan28003"
         style="stroke-width:0.731534">Acquisition</tspan></text>
    <g
       id="g28025"
       transform="matrix(0.99650297,0,0,-0.99650297,-248.25925,1184.7607)"
       style="display:inline">
      <path
         d="m 71.111,1166.004 h 75.516 v -7.068 H 71.111 Z"
         style="opacity:0.5;fill:#000000;fill-opacity:1;fill-rule:nonzero;stroke:none"
         id="path28007" />
      <g
         transform="translate(130.3811,1180.8618)"
         id="g28011"
         style="opacity:0.5">
        <path
           d="m 0,0 c 0,4.943 4.014,8.943 8.957,8.943 4.936,0 8.962,-4 8.962,-8.943 0,-4.928 -4.026,-8.947 -8.962,-8.947 C 4.014,-8.947 0,-4.928 0,0"
           style="fill:#000000;fill-opacity:1;fill-rule:nonzero;stroke:none"
           id="path28009" />
      </g>
      <g
         transform="translate(118.9287,1190.1171)"
         id="g28015"
         style="opacity:0.5">
        <path
           d="m 0,0 h -30.004 l -17.842,-2.727 v -15.464 l 9.004,-0.003 c -0.714,1.152 -1.147,2.499 -1.147,3.951 0,4.173 3.398,7.568 7.578,7.568 h 16.43 l 13.319,2.78 0.739,-3.532 -13.685,-2.853 h -16.803 c -2.191,0 -3.967,-1.772 -3.967,-3.961 0,-2.169 1.746,-3.923 3.914,-3.952 L 0.07,-18.196 c 5.029,0.039 9.067,4.085 9.067,9.089 C 9.139,-4.081 5.065,0.002 0,0.002 Z"
           style="fill:#000000;fill-opacity:1;fill-rule:nonzero;stroke:none"
           id="path28013" />
      </g>
      <g
         transform="translate(134.4553,1139.965)"
         id="g28019"
         style="opacity:0.5">
        <path
           d="m 0,0 c 20.015,0 36.241,16.203 36.241,36.188 0,19.988 -16.224,36.189 -36.241,36.189 -13.085,0 -24.519,-6.953 -30.891,-17.335 h 15.178 c 4.28,3.581 9.785,5.74 15.803,5.74 13.602,0 24.629,-11.012 24.629,-24.594 0,-13.585 -11.029,-24.597 -24.629,-24.597 -3.859,0 -7.494,0.912 -10.746,2.492 H -28.648 C -22.021,5.531 -11.669,0.002 0,0.002 Z"
           style="fill:#000000;fill-opacity:1;fill-rule:nonzero;stroke:none"
           id="path28017" />
      </g>
      <g
         transform="translate(147.1828,1219.5731)"
         id="g28023"
         style="opacity:0.5">
        <path
           d="m 0,0 c -0.203,-0.809 -0.927,-1.347 -1.723,-1.347 -0.144,0 -0.291,0.016 -0.434,0.057 -6.845,1.704 -14.114,1.704 -20.964,0 -0.953,-0.254 -1.918,0.34 -2.157,1.292 -0.239,0.952 0.341,1.915 1.298,2.152 C -16.568,4 -8.708,4 -1.296,2.154 -0.343,1.915 0.235,0.952 -0.002,0 Z m -12.728,12.735 c -24.799,0 -45.824,-16.083 -53.228,-38.366 l 6.911,1.074 11.215,-0.004 c 6.733,12.468 19.924,20.943 35.101,20.943 22.015,0 39.862,-17.822 39.862,-39.804 0,-21.984 -17.845,-39.803 -39.862,-39.803 -13.824,0 -25.994,7.032 -33.144,17.706 h -18.33 c 8.618,-19.857 28.416,-33.756 51.474,-33.756 30.976,0 56.09,25.072 56.09,56.005 0,30.927 -25.114,56.005 -56.09,56.005 z"
           style="fill:#000000;fill-opacity:1;fill-rule:nonzero;stroke:none"
           id="path28021" />
      </g>
    </g>
    <g
       transform="matrix(0.99650297,0,0,-0.99650297,-39.52188,12.571684)"
       id="g28029"
       style="display:inline;fill:#808080;fill-opacity:0.996919;stroke:#808080;stroke-opacity:1">
      <path
         d="M 0,0 H 28.34"
         style="fill:#808080;fill-opacity:0.996919;stroke:#808080;stroke-width:2;stroke-linecap:butt;stroke-linejoin:miter;stroke-miterlimit:8;stroke-dasharray:none;stroke-opacity:1"
         id="path28027" />
    </g>
    <g
       transform="matrix(0.99650297,0,0,-0.99650297,-13.578225,5.6787955)"
       id="g28033"
       style="display:inline;fill:#808080;fill-opacity:1;stroke:#808080;stroke-opacity:1">
      <path
         d="M 0,0 13.833,-6.917 -0.001,-13.833 Z"
         style="fill:#808080;fill-opacity:1;fill-rule:evenodd;stroke:#808080;stroke-opacity:1"
         id="path28031" />
    </g>
    <text
       style="font-variant:normal;font-weight:bold;font-stretch:normal;font-size:22.5324px;font-family:'Myriad Pro';-inkscape-font-specification:MyriadPro-Bold;writing-mode:lr-tb;display:inline;fill:#808080;fill-opacity:1;fill-rule:nonzero;stroke:none;stroke-width:0.731534"
       id="text28041"
       x="14.596069"
       y="114.84384"><tspan
         x="14.596069 28.002872 41.004082 54.208057 66.150261 78.047379 86.609695 96.388786 102.56267 115.56389 128.76788"
         y="114.84384"
         id="tspan28037"
         style="stroke-width:0.731534">Conversion</tspan><tspan
         x="37.10598 45.375351 58.376579 62.928112 76.537697 82.959442 98.642014"
         y="141.88263"
         id="tspan28039"
         style="stroke-width:0.731534">to BIDS</tspan></text>
    <g
       transform="matrix(0.99650297,0,0,-0.99650297,76.895381,32.733216)"
       id="g28045"
       style="display:inline;opacity:0.5">
      <path
         d="m 0,0 c -2.279,0.743 -3.782,2.825 -3.782,5.214 v 0.525 h -54.25 v -6.524 c 0,-2.955 2.418,-5.373 5.373,-5.373 H 1.99 c 0.084,0.226 0.173,0.453 0.29,0.667 l 0.697,1.364 c -0.6,1.172 -1.108,2.398 -1.515,3.644 z m -7.309,22.472 14.046,7.845 c 0.827,0.462 1.13,1.503 0.668,2.334 -0.16,0.29 -0.407,0.525 -0.689,0.676 l -14.025,7.834 c -0.827,0.461 -1.868,0.159 -2.321,-0.668 -0.462,-0.827 -0.16,-1.868 0.667,-2.321 L 2.405,31.82 -8.963,25.469 c -0.827,-0.462 -1.129,-1.503 -0.667,-2.322 0.453,-0.839 1.494,-1.129 2.321,-0.676 z m -6.393,23.802 c -0.924,0.214 -1.847,-0.365 -2.053,-1.289 l -5.856,-25.578 c -0.214,-0.915 0.365,-1.839 1.28,-2.053 0.924,-0.214 1.847,0.365 2.053,1.289 l 5.856,25.578 c 0.223,0.923 -0.357,1.839 -1.28,2.053 M -36.43,31.82 l 11.369,6.352 c 0.827,0.462 1.129,1.503 0.667,2.321 -0.462,0.827 -1.503,1.129 -2.321,0.668 l -14.037,-7.838 c -0.282,-0.151 -0.517,-0.386 -0.689,-0.676 -0.462,-0.827 -0.159,-1.868 0.668,-2.334 l 14.046,-7.846 c 0.827,-0.462 1.868,-0.159 2.321,0.668 0.462,0.827 0.16,1.868 -0.667,2.321 z M -3.707,9.177 h -54.325 v 41.622 c 0,2.955 2.418,5.373 5.373,5.373 h 71.281 c 2.956,0 5.374,-2.418 5.374,-5.373 V 34.52 H 22.48 c -2.397,0 -4.483,-1.516 -5.214,-3.795 L 16.792,29.272 C 15.533,28.873 14.319,28.37 13.148,27.757 l -1.364,0.696 C 9.655,29.541 7.107,29.142 5.42,27.442 L 3.283,25.305 C 1.595,23.617 1.188,21.069 2.271,18.941 L 2.968,17.577 C 2.368,16.405 1.86,15.18 1.465,13.933 l -1.46,-0.475 c -1.969,-0.65 -3.367,-2.292 -3.712,-4.281 z m 4.652,-25.138 h -7.502 l -2.288,6.373 h -16.347 l -2.279,-6.373 h -7.502 c -0.945,0 -1.721,-0.764 -1.721,-1.708 0,-0.945 0.772,-1.721 1.721,-1.721 H 0.944 c 0.945,0 1.722,0.772 1.722,1.721 0,0.936 -0.773,1.708 -1.722,1.708 z M 34.603,6.725 c 0,2.922 -1.183,5.579 -3.106,7.502 -1.923,1.922 -4.567,3.106 -7.502,3.106 -2.934,0 -5.587,-1.192 -7.502,-3.106 -1.922,-1.923 -3.106,-4.568 -3.106,-7.502 0,-2.935 1.184,-5.588 3.106,-7.502 1.923,-1.923 4.568,-3.106 7.502,-3.106 2.922,0 5.579,1.183 7.502,3.106 1.927,1.914 3.106,4.572 3.106,7.502 M 48.36,8.232 V 5.214 C 48.36,4.311 47.802,3.539 46.941,3.27 L 44.792,2.573 C 44.124,2.359 43.642,1.864 43.461,1.188 43.033,-0.315 42.429,-1.755 41.677,-3.098 41.333,-3.711 41.324,-4.4 41.643,-5.021 l 1.021,-2.011 c 0.407,-0.806 0.256,-1.742 -0.378,-2.376 l -2.137,-2.137 c -0.634,-0.633 -1.57,-0.785 -2.376,-0.377 l -2.011,1.02 c -0.621,0.323 -1.31,0.31 -1.922,-0.034 -1.344,-0.751 -2.784,-1.356 -4.287,-1.771 -0.675,-0.193 -1.171,-0.668 -1.385,-1.344 l -0.697,-2.136 c -0.281,-0.861 -1.041,-1.419 -1.943,-1.419 h -3.019 c -0.902,0 -1.675,0.558 -1.943,1.419 l -0.697,2.136 c -0.214,0.668 -0.71,1.151 -1.386,1.344 -1.502,0.419 -2.942,1.02 -4.286,1.771 -0.612,0.344 -1.301,0.353 -1.922,0.034 l -2.011,-1.02 c -0.806,-0.408 -1.742,-0.256 -2.376,0.377 l -2.137,2.137 c -0.634,0.647 -0.785,1.579 -0.378,2.376 l 1.021,2.011 C 6.717,-4.4 6.704,-3.711 6.36,-3.098 5.608,-1.755 5.004,-0.315 4.588,1.188 4.395,1.864 3.921,2.359 3.245,2.573 L 1.096,3.27 C 0.235,3.551 -0.323,4.324 -0.323,5.214 v 3.018 c 0,0.902 0.558,1.675 1.419,1.944 l 2.149,0.696 c 0.668,0.214 1.138,0.71 1.331,1.386 0.428,1.503 1.02,2.942 1.771,4.286 0.345,0.613 0.353,1.301 0.034,1.922 l -1.02,2.011 c -0.407,0.806 -0.256,1.742 0.378,2.376 l 2.136,2.137 c 0.647,0.634 1.579,0.785 2.376,0.378 l 2.011,-1.02 c 0.621,-0.324 1.31,-0.303 1.923,0.033 1.343,0.752 2.783,1.356 4.286,1.784 0.676,0.194 1.171,0.668 1.385,1.331 l 0.697,2.137 c 0.281,0.86 1.054,1.419 1.944,1.419 h 3.018 c 0.903,0 1.675,-0.558 1.944,-1.419 l 0.697,-2.137 c 0.214,-0.667 0.709,-1.15 1.385,-1.331 1.503,-0.428 2.943,-1.032 4.286,-1.784 0.613,-0.344 1.301,-0.352 1.923,-0.033 l 2.01,1.02 c 0.806,0.407 1.743,0.256 2.376,-0.378 l 2.137,-2.137 c 0.634,-0.634 0.785,-1.57 0.378,-2.376 l -1.02,-2.011 c -0.323,-0.621 -0.302,-1.309 0.033,-1.922 0.752,-1.344 1.356,-2.783 1.785,-4.286 0.193,-0.676 0.667,-1.171 1.33,-1.386 l 2.15,-0.696 C 47.802,9.907 48.36,9.143 48.36,8.232 Z M 29.08,11.8 c 1.301,-1.301 2.107,-3.094 2.107,-5.071 0,-1.99 -0.806,-3.774 -2.107,-5.071 -1.302,-1.301 -3.094,-2.095 -5.071,-2.095 -1.99,0 -3.774,0.806 -5.072,2.095 -1.301,1.301 -2.094,3.094 -2.094,5.071 0,1.977 0.806,3.774 2.094,5.071 1.302,1.302 3.094,2.107 5.072,2.107 1.977,-0.012 3.761,-0.818 5.071,-2.107"
         style="fill:#000000;fill-opacity:1;fill-rule:nonzero;stroke:none"
         id="path28043" />
    </g>
    <g
       transform="matrix(0.99650297,0,0,-0.99650297,143.94621,15.537628)"
       id="g28049"
       style="display:inline;fill:#808080;fill-opacity:0.996919;stroke:#808080;stroke-opacity:1">
      <path
         d="M 0,0 H 28.34"
         style="fill:#808080;fill-opacity:0.996919;stroke:#808080;stroke-width:2;stroke-linecap:butt;stroke-linejoin:miter;stroke-miterlimit:8;stroke-dasharray:none;stroke-opacity:1"
         id="path28047" />
    </g>
    <g
       transform="matrix(0.99650297,0,0,-0.99650297,169.88988,8.6447385)"
       id="g28053"
       style="display:inline;fill:#808080;fill-opacity:1;stroke:#808080;stroke-opacity:1">
      <path
         d="M 0,0 13.833,-6.917 -0.001,-13.833 Z"
         style="fill:#808080;fill-opacity:1;fill-rule:evenodd;stroke:#808080;stroke-opacity:1"
         id="path28051" />
    </g>
    <text
       style="font-variant:normal;font-weight:bold;font-stretch:normal;font-size:22.5324px;font-family:'Myriad Pro';-inkscape-font-specification:MyriadPro-Bold;writing-mode:lr-tb;display:inline;fill:#808080;fill-opacity:1;fill-rule:nonzero;stroke:none;stroke-width:0.731534"
       id="text28061"
       x="221.05849"
       y="114.46078"><tspan
         x="221.05849 240.12093 253.48264 259.90436 276.06012"
         y="114.46078"
         id="tspan28059"
         style="stroke-width:0.731534">MRIQC</tspan></text>
    <g
       transform="matrix(0.99650297,0,0,-0.99650297,260.36344,31.243506)"
       id="g28065"
       style="display:inline;opacity:0.5">
      <path
         d="m 0,0 c -2.279,0.743 -3.782,2.825 -3.782,5.214 v 0.525 h -54.25 v -6.524 c 0,-2.955 2.418,-5.373 5.373,-5.373 H 1.99 c 0.084,0.226 0.173,0.453 0.29,0.667 l 0.697,1.364 c -0.6,1.172 -1.108,2.398 -1.515,3.644 z m -7.309,22.472 14.046,7.845 c 0.827,0.462 1.13,1.503 0.668,2.334 -0.16,0.29 -0.407,0.525 -0.689,0.676 l -14.025,7.834 c -0.827,0.461 -1.868,0.159 -2.321,-0.668 -0.462,-0.827 -0.16,-1.868 0.667,-2.321 L 2.405,31.82 -8.963,25.469 c -0.827,-0.462 -1.129,-1.503 -0.667,-2.322 0.453,-0.839 1.494,-1.129 2.321,-0.676 z m -6.393,23.802 c -0.924,0.214 -1.847,-0.365 -2.053,-1.289 l -5.856,-25.578 c -0.214,-0.915 0.365,-1.839 1.28,-2.053 0.924,-0.214 1.847,0.365 2.053,1.289 l 5.856,25.578 c 0.223,0.923 -0.357,1.839 -1.28,2.053 M -36.43,31.82 l 11.369,6.352 c 0.827,0.462 1.129,1.503 0.667,2.321 -0.462,0.827 -1.503,1.129 -2.321,0.668 l -14.037,-7.838 c -0.282,-0.151 -0.517,-0.386 -0.689,-0.676 -0.462,-0.827 -0.159,-1.868 0.668,-2.334 l 14.046,-7.846 c 0.827,-0.462 1.868,-0.159 2.321,0.668 0.462,0.827 0.16,1.868 -0.667,2.321 z M -3.707,9.177 h -54.325 v 41.622 c 0,2.955 2.418,5.373 5.373,5.373 h 71.281 c 2.956,0 5.374,-2.418 5.374,-5.373 V 34.52 H 22.48 c -2.397,0 -4.483,-1.516 -5.214,-3.795 L 16.792,29.272 C 15.533,28.873 14.319,28.37 13.148,27.757 l -1.364,0.696 C 9.655,29.541 7.107,29.142 5.42,27.442 L 3.283,25.305 C 1.595,23.617 1.188,21.069 2.271,18.941 L 2.968,17.577 C 2.368,16.405 1.86,15.18 1.465,13.933 l -1.46,-0.475 c -1.969,-0.65 -3.367,-2.292 -3.712,-4.281 z m 4.652,-25.138 h -7.502 l -2.288,6.373 h -16.347 l -2.279,-6.373 h -7.502 c -0.944,0 -1.721,-0.764 -1.721,-1.708 0,-0.945 0.772,-1.721 1.721,-1.721 H 0.944 c 0.945,0 1.722,0.772 1.722,1.721 0,0.936 -0.773,1.708 -1.722,1.708 z M 34.603,6.725 c 0,2.922 -1.183,5.579 -3.106,7.502 -1.923,1.922 -4.567,3.106 -7.502,3.106 -2.934,0 -5.587,-1.192 -7.502,-3.106 -1.922,-1.923 -3.106,-4.568 -3.106,-7.502 0,-2.935 1.184,-5.588 3.106,-7.502 1.923,-1.923 4.568,-3.106 7.502,-3.106 2.922,0 5.579,1.183 7.502,3.106 1.927,1.914 3.106,4.572 3.106,7.502 M 48.36,8.232 V 5.214 C 48.36,4.311 47.802,3.539 46.941,3.27 L 44.792,2.573 C 44.124,2.359 43.642,1.864 43.461,1.188 43.033,-0.315 42.429,-1.755 41.677,-3.098 41.333,-3.711 41.324,-4.4 41.643,-5.021 l 1.021,-2.011 c 0.407,-0.806 0.256,-1.742 -0.378,-2.376 l -2.137,-2.137 c -0.634,-0.633 -1.57,-0.785 -2.376,-0.377 l -2.011,1.02 c -0.621,0.323 -1.31,0.31 -1.922,-0.034 -1.344,-0.751 -2.784,-1.356 -4.287,-1.771 -0.675,-0.193 -1.171,-0.668 -1.385,-1.344 l -0.697,-2.136 c -0.281,-0.861 -1.041,-1.419 -1.943,-1.419 h -3.019 c -0.902,0 -1.675,0.558 -1.943,1.419 l -0.697,2.136 c -0.214,0.668 -0.71,1.151 -1.385,1.344 -1.503,0.419 -2.943,1.02 -4.287,1.771 -0.612,0.344 -1.301,0.353 -1.922,0.034 l -2.011,-1.02 c -0.806,-0.408 -1.742,-0.256 -2.376,0.377 l -2.137,2.137 c -0.634,0.647 -0.785,1.579 -0.378,2.376 l 1.02,2.011 C 6.717,-4.4 6.704,-3.711 6.36,-3.098 5.609,-1.755 5.004,-0.315 4.588,1.188 4.395,1.864 3.921,2.359 3.245,2.573 L 1.096,3.27 C 0.235,3.551 -0.323,4.324 -0.323,5.214 v 3.018 c 0,0.902 0.558,1.675 1.419,1.944 l 2.149,0.696 c 0.668,0.214 1.138,0.71 1.331,1.386 0.428,1.503 1.02,2.942 1.771,4.286 0.345,0.613 0.353,1.301 0.034,1.922 l -1.02,2.011 c -0.407,0.806 -0.256,1.742 0.378,2.376 l 2.136,2.137 c 0.647,0.634 1.579,0.785 2.376,0.378 l 2.011,-1.02 c 0.621,-0.324 1.31,-0.303 1.923,0.033 1.343,0.752 2.783,1.356 4.286,1.784 0.676,0.194 1.171,0.668 1.385,1.331 l 0.697,2.137 c 0.281,0.86 1.054,1.419 1.944,1.419 h 3.018 c 0.903,0 1.675,-0.558 1.944,-1.419 l 0.697,-2.137 c 0.214,-0.667 0.709,-1.15 1.385,-1.331 1.503,-0.428 2.943,-1.032 4.286,-1.784 0.613,-0.344 1.301,-0.352 1.923,-0.033 l 2.01,1.02 c 0.806,0.407 1.743,0.256 2.376,-0.378 l 2.137,-2.137 c 0.634,-0.634 0.785,-1.57 0.378,-2.376 l -1.02,-2.011 c -0.323,-0.621 -0.302,-1.309 0.033,-1.922 0.752,-1.344 1.356,-2.783 1.785,-4.286 0.193,-0.676 0.667,-1.171 1.33,-1.386 l 2.15,-0.696 C 47.802,9.907 48.36,9.143 48.36,8.232 Z M 29.08,11.8 c 1.301,-1.301 2.107,-3.094 2.107,-5.071 0,-1.99 -0.806,-3.774 -2.107,-5.071 -1.302,-1.301 -3.094,-2.095 -5.072,-2.095 -1.989,0 -3.774,0.806 -5.071,2.095 -1.301,1.301 -2.094,3.094 -2.094,5.071 0,1.977 0.806,3.774 2.094,5.071 1.302,1.302 3.094,2.107 5.071,2.107 1.978,-0.012 3.762,-0.818 5.072,-2.107"
         style="fill:#000000;fill-opacity:1;fill-rule:nonzero;stroke:none"
         id="path28063" />
    </g>
    <path
       style="fill:none;stroke:#000000;stroke-width:2.64583333;stroke-linecap:butt;stroke-linejoin:miter;stroke-dasharray:none;stroke-opacity:1"
       d="m 312.59226,-59.177613 c -484.07777,0 -484.07777,0 -484.07777,0"
       id="path2" />
    <text
       xml:space="preserve"
       style="font-size:25.4px;line-height:1.25;font-family:Helvetica;-inkscape-font-specification:'Helvetica, Normal';stroke-width:0.264583"
       x="-9.0629025"
       y="-68.568825"
       id="text3"><tspan
         id="tspan3"
         style="font-style:normal;font-variant:normal;font-weight:normal;font-stretch:normal;font-size:25.4px;font-family:'Myriad Pro';-inkscape-font-specification:'Myriad Pro';stroke-width:0.264583"
         x="-9.0629025"
         y="-68.568825">Data collection</tspan></text>
  </g>
  <metadata
     id="metadata1">
    <rdf:RDF>
      <cc:Work
         rdf:about="">
        <cc:license
           rdf:resource="http://creativecommons.org/licenses/by/4.0/" />
      </cc:Work>
      <cc:License
         rdf:about="http://creativecommons.org/licenses/by/4.0/">
        <cc:permits
           rdf:resource="http://creativecommons.org/ns#Reproduction" />
        <cc:permits
           rdf:resource="http://creativecommons.org/ns#Distribution" />
        <cc:requires
           rdf:resource="http://creativecommons.org/ns#Notice" />
        <cc:requires
           rdf:resource="http://creativecommons.org/ns#Attribution" />
        <cc:permits
           rdf:resource="http://creativecommons.org/ns#DerivativeWorks" />
      </cc:License>
    </rdf:RDF>
  </metadata>
</svg>
