<?xml version="1.0" encoding="UTF-8" standalone="no"?>
<!-- Created with Inkscape (http://www.inkscape.org/) -->

<svg
   width="238mm"
   height="94mm"
   viewBox="0 0 238 94"
   version="1.1"
   id="svg1"
   xml:space="preserve"
   inkscape:version="1.4.2 (1:1.4.2+202505120738+ebf0e940d0)"
   sodipodi:docname="publication-workflow-RRs.svg"
   xmlns:inkscape="http://www.inkscape.org/namespaces/inkscape"
   xmlns:sodipodi="http://sodipodi.sourceforge.net/DTD/sodipodi-0.dtd"
   xmlns="http://www.w3.org/2000/svg"
   xmlns:svg="http://www.w3.org/2000/svg"><sodipodi:namedview
     id="namedview1"
     pagecolor="#ffffff"
     bordercolor="#666666"
     borderopacity="1.0"
     inkscape:showpageshadow="2"
     inkscape:pageopacity="0.0"
     inkscape:pagecheckerboard="0"
     inkscape:deskcolor="#d1d1d1"
     inkscape:document-units="mm"
     inkscape:zoom="0.5"
     inkscape:cx="872"
     inkscape:cy="551"
     inkscape:window-width="1920"
     inkscape:window-height="1029"
     inkscape:window-x="1080"
     inkscape:window-y="25"
     inkscape:window-maximized="1"
     inkscape:current-layer="layer3"
     showguides="false" />
     <defs id="defs1">
     <style
        type="text/css"
        id="style1"><![CDATA[
      @import url(https://fonts.googleapis.com/css?family=Arimo:400,800,400italic);
     ]]></style>
     <rect
       x="32"
       y="119"
       width="28"
       height="90"
       id="rect19" /><rect
       x="63"
       y="485"
       width="122"
       height="70"
       id="rect17" /></defs><g
     inkscape:label="Layer 1"
     inkscape:groupmode="layer"
     id="layer1"><path
       style="display:inline;fill:#0044aa;stroke:#0044aa;stroke-width:1.61278;stroke-linecap:butt;stroke-linejoin:miter;stroke-dasharray:none;stroke-opacity:1"
       d="m 3.6718256,30.536699 79.4063344,0"
       id="path1"
       sodipodi:nodetypes="cc" /><path
       style="display:inline;fill:#0044aa;stroke:#0044aa;stroke-width:1.61278;stroke-linecap:butt;stroke-linejoin:miter;stroke-dasharray:none;stroke-opacity:1"
       d="m 103.94891,30.536699 127.5605,0"
       id="path7"
       sodipodi:nodetypes="cc" /></g><g
     inkscape:groupmode="layer"
     id="g33"
     inkscape:label="Publish"
     style="display:inline"><path
       id="path30"
       style="display:inline;fill:#b3d2ff;fill-opacity:1;stroke-width:1.61999;stroke-linecap:square;paint-order:fill markers stroke"
       d="m 231.74481,1.2126025 -49.21412,0.0062 0.0468,26.7099955 h 42.61925 c 0,0 4.29768,-0.04657 6.53893,-0.0708 0,0 -0.0312,-17.763315 0.009,-26.6453955 z"
       sodipodi:nodetypes="cccccc" /><text
       xml:space="preserve"
       style="font-size:8.46667px;line-height:1.25;font-family:Arimo;-inkscape-font-specification:'Arimo, Normal';font-variant-ligatures:none;letter-spacing:0px;word-spacing:0px;display:inline;stroke-width:0.264583"
       x="195.15158"
       y="16.76306"
       id="text31"><tspan
         sodipodi:role="line"
         id="tspan31"
         style="font-weight:bold;stroke-width:0.264583"
         x="195.15158"
         y="16.76306">Publish</tspan></text><circle
       style="display:inline;fill:#0044aa;fill-opacity:1;stroke:none;stroke-width:1.95333;stroke-linecap:square;stroke-linejoin:miter;stroke-dasharray:none;paint-order:fill markers stroke"
       id="circle47"
       cx="231.50905"
       cy="30.536697"
       r="5.2916665" /><circle
       style="display:inline;fill:#b3d2ff;fill-opacity:1;stroke:none;stroke-width:1.465;stroke-linecap:square;stroke-linejoin:miter;stroke-dasharray:none;paint-order:fill markers stroke"
       id="circle48"
       cx="231.50905"
       cy="30.536697"
       r="3.96875" /><path
       fill="currentColor"
       d="m 229.15756,27.399511 c 0.21689,0 0.39215,0.175238 0.39215,0.392145 v 0.196073 l 0.84556,-0.210776 c 0.46692,-0.116425 0.95955,-0.06256 1.39093,0.153188 0.5674,0.284313 1.23526,0.284313 1.80266,0 l 0.11769,-0.05885 c 0.25247,-0.127449 0.54902,0.05635 0.54902,0.338234 v 3.427645 c 0,0.162985 -0.10173,0.310037 -0.2549,0.367638 l -0.42523,0.159313 c -0.56618,0.212005 -1.19605,0.178917 -1.73651,-0.09069 -0.46445,-0.232842 -0.99752,-0.290432 -1.5012,-0.164216 l -0.78797,0.196083 v 1.176446 c 0,0.216916 -0.17525,0.392155 -0.39215,0.392155 -0.21691,0 -0.39216,-0.175239 -0.39216,-0.392155 v -5.490099 c 0,-0.216907 0.17525,-0.392145 0.39216,-0.392145 z m 0.39215,2.292859 0.78429,-0.170348 v 0.802685 l -0.78429,0.170348 v 0.802685 l 0.59803,-0.149513 c 0.0624,-0.01596 0.12377,-0.02936 0.18626,-0.04042 v -0.783088 l 0.47672,-0.102987 c 0.10173,-0.02202 0.20464,-0.03061 0.30759,-0.02576 v -0.784313 c 0.16666,0.0045 0.33334,0.03185 0.49508,0.07849 l 0.28921,0.08458 v 0.817387 l -0.51101,-0.150737 c -0.0894,-0.02574 -0.18136,-0.04167 -0.27328,-0.04653 v 0.874991 c 0.26715,0.02326 0.53062,0.08211 0.78429,0.176468 v -0.855387 l 0.2782,0.08209 c 0.16545,0.04901 0.33455,0.07849 0.50611,0.09067 v -0.78675 c -0.0955,-0.01011 -0.19117,-0.02824 -0.28431,-0.05511 l -0.5,-0.147047 v -0.759795 c -0.15923,-0.04653 -0.31615,-0.107836 -0.46811,-0.183821 -0.10052,-0.05026 -0.20712,-0.08582 -0.31618,-0.107848 v 0.887244 c -0.15924,-0.0045 -0.31862,0.01011 -0.47426,0.04416 l -0.31005,0.06741 v -0.921543 l -0.78429,0.196071 z m 3.1372,1.821046 c 0.20588,0.01841 0.41544,-0.009 0.61273,-0.08333 l 0.17157,-0.0637 v -0.878672 l -0.0967,0.02202 c -0.22547,0.05273 -0.4571,0.0699 -0.68749,0.05511 z m 0.7843,-1.830859 v -0.867628 c -0.25611,0.07477 -0.5196,0.111467 -0.7843,0.111467 v 0.850486 c 0.17034,0.01717 0.34314,0.0056 0.51103,-0.03185 l 0.27327,-0.0637 z"
       id="path49"
       style="display:inline;fill:#0044aa;fill-opacity:1;stroke-width:0.0122546" /><g
       id="g9"><circle
         style="display:inline;fill:#ff6600;fill-opacity:1;stroke:none;stroke-width:1.95333;stroke-linecap:square;stroke-linejoin:miter;stroke-dasharray:none;paint-order:fill markers stroke"
         id="circle51"
         cx="194.99704"
         cy="30.536697"
         r="5.2916665" /><circle
         style="display:inline;fill:#ffccaa;fill-opacity:1;stroke:none;stroke-width:1.465;stroke-linecap:square;stroke-linejoin:miter;stroke-dasharray:none;paint-order:fill markers stroke"
         id="circle52"
         cx="194.99704"
         cy="30.536697"
         r="3.96875" /><path
         fill="currentColor"
         d="m 194.99556,27.501332 c 0.0549,0 0.10968,0.01192 0.15975,0.03458 l 2.24612,0.952575 c 0.26229,0.110875 0.45781,0.369585 0.45662,0.681944 -0.006,1.182671 -0.49238,3.34653 -2.54656,4.330102 -0.1991,0.09538 -0.43039,0.09538 -0.62949,0 -2.05536,-0.983572 -2.5406,-3.147431 -2.54655,-4.330102 -0.001,-0.312359 0.19432,-0.571069 0.45661,-0.681944 l 2.24493,-0.952575 c 0.0501,-0.02265 0.10372,-0.03458 0.15857,-0.03458 z m 0,0.796395 v 4.507742 c 1.64524,-0.796395 2.08755,-2.560865 2.09828,-3.617162 l -2.09828,-0.889388 v 0 z"
         id="path1-2"
         style="display:inline;fill:#ff6600;fill-opacity:1;stroke-width:0.0119221" /></g><text
       xml:space="preserve"
       style="font-size:6.35px;line-height:1.25;font-family:Arimo;-inkscape-font-specification:'Arimo, Normal';font-variant-ligatures:none;letter-spacing:0px;word-spacing:0px;display:inline;fill:#0044aa;fill-opacity:1;stroke-width:0.264583"
       x="229.82727"
       y="40.831188"
       id="text58"><tspan
         id="tspan58"
         style="font-style:normal;font-variant:normal;font-weight:bold;font-stretch:normal;font-size:6.35px;font-family:Arimo;-inkscape-font-specification:'Arimo Bold';text-align:end;text-anchor:end;fill:#0044aa;fill-opacity:1;stroke-width:0.264583"
         x="229.82727"
         y="40.831188"
         sodipodi:role="line">Accept</tspan></text></g><g
     inkscape:groupmode="layer"
     id="g30"
     inkscape:label="Reporting"><g
       id="g29"
       transform="translate(127.44382,-13.988539)"
       style="display:inline"><g
         id="g28"
         transform="translate(23.473939)"><path
           id="path27"
           style="fill:#b3d2ff;fill-opacity:1;stroke-width:1.61999;stroke-linecap:square;paint-order:fill markers stroke"
           d="m 29.82867,15.201139 v 0.0062 h -42.666024 l 0.04677,26.709999 h 42.619252 v 0.0067 l 0.0031,-0.0067 h 0.03462 v -0.0708 l 6.44974,-13.28394 -6.449736,-13.283944 v -0.07131 h -0.03462 z"
           sodipodi:nodetypes="cccccccccccccc" /><path
           id="path28"
           style="fill:#ffffff;stroke-width:1.61999;stroke-linecap:square;paint-order:fill markers stroke"
           d="m 31.945337,15.201139 v 0.0062 h -2.078943 v 0.07131 l 6.449736,13.283944 -6.449736,13.283943 v 0.0708 h 2.078943 v 0.0067 l 0.0031,-0.0067 h 0.03462 v -0.0708 L 38.432796,28.562598 31.983061,15.278654 v -0.07131 h -0.03462 z" /></g><text
         xml:space="preserve"
         style="font-size:8.46667px;line-height:1.25;font-family:Arimo;-inkscape-font-specification:'Arimo, Normal';font-variant-ligatures:none;letter-spacing:0px;word-spacing:0px;stroke-width:0.264583"
         x="17.965794"
         y="30.751602"
         id="text28"><tspan
           sodipodi:role="line"
           id="tspan28"
           style="font-weight:bold;stroke-width:0.264583"
           x="17.965794"
           y="30.751602">Reporting</tspan></text></g><text
       xml:space="preserve"
       style="font-size:6.35px;line-height:1.25;font-family:Arimo;-inkscape-font-specification:'Arimo, Normal';font-variant-ligatures:none;letter-spacing:0px;word-spacing:0px;display:inline;fill:#0044aa;fill-opacity:1;stroke-width:0.264583"
       x="178.49879"
       y="40.831188"
       id="text50"><tspan
         id="tspan50"
         style="font-style:normal;font-variant:normal;font-weight:bold;font-stretch:normal;font-size:6.35px;font-family:Arimo;-inkscape-font-specification:'Arimo Bold';text-align:end;text-anchor:end;fill:#0044aa;fill-opacity:1;stroke-width:0.264583"
         x="178.49879"
         y="40.831188"
         sodipodi:role="line">Paper</tspan></text><g
       id="g7"><circle
         style="display:inline;fill:#0044aa;fill-opacity:1;stroke:none;stroke-width:1.95333;stroke-linecap:square;stroke-linejoin:miter;stroke-dasharray:none;paint-order:fill markers stroke"
         id="circle49"
         cx="180.70973"
         cy="30.536697"
         r="5.2916665" /><circle
         style="display:inline;fill:#b3d2ff;fill-opacity:1;stroke:none;stroke-width:1.465;stroke-linecap:square;stroke-linejoin:miter;stroke-dasharray:none;paint-order:fill markers stroke"
         id="circle50"
         cx="180.70973"
         cy="30.536697"
         r="3.96875" /><path
         fill="currentColor"
         d="m 178.3778,28.20506 c 0,-0.428682 0.34853,-0.777214 0.77721,-0.777214 h 1.81553 c 0.20644,0 0.40439,0.08136 0.55012,0.227093 l 1.29333,1.294545 c 0.14572,0.145728 0.22709,0.343675 0.22709,0.550119 v 3.368736 c 0,0.42868 -0.34853,0.777214 -0.77721,0.777214 h -3.10886 c -0.42868,0 -0.77721,-0.348534 -0.77721,-0.777214 z m 2.52594,-0.06679 v 1.13546 c 0,0.161514 0.12994,0.291457 0.29146,0.291457 h 1.13546 z m -1.06867,2.39843 c -0.16151,0 -0.29145,0.129944 -0.29145,0.291458 0,0.161513 0.12994,0.291451 0.29145,0.291451 h 1.74874 c 0.16151,0 0.29145,-0.129938 0.29145,-0.291451 0,-0.161514 -0.12994,-0.291458 -0.29145,-0.291458 z m 0,1.165824 c -0.16151,0 -0.29145,0.129937 -0.29145,0.291451 0,0.161514 0.12994,0.291457 0.29145,0.291457 h 1.74874 c 0.16151,0 0.29145,-0.129943 0.29145,-0.291457 0,-0.161514 -0.12994,-0.291451 -0.29145,-0.291451 z"
         id="path1-0"
         style="display:inline;fill:#0044aa;fill-opacity:1;stroke-width:0.0121439" /></g></g><g
     inkscape:groupmode="layer"
     id="g27"
     inkscape:label="Research"><g
       id="g26"
       transform="translate(82.993621,-13.988539)"
       style="display:inline"><g
         id="g25"
         transform="translate(23.473939)"><path
           id="path24"
           style="fill:#b3d2ff;fill-opacity:1;stroke-width:1.61999;stroke-linecap:square;paint-order:fill markers stroke"
           d="m 29.82867,15.201139 v 0.0062 h -42.666024 l 0.04677,26.709999 h 42.619252 v 0.0067 l 0.0031,-0.0067 h 0.03462 v -0.0708 l 6.44974,-13.28394 -6.449736,-13.283944 v -0.07131 h -0.03462 z"
           sodipodi:nodetypes="cccccccccccccc" /><path
           id="path25"
           style="fill:#ffffff;stroke-width:1.61999;stroke-linecap:square;paint-order:fill markers stroke"
           d="m 31.945337,15.201139 v 0.0062 h -2.078943 v 0.07131 l 6.449736,13.283944 -6.449736,13.283943 v 0.0708 h 2.078943 v 0.0067 l 0.0031,-0.0067 h 0.03462 v -0.0708 L 38.432796,28.562598 31.983061,15.278654 v -0.07131 h -0.03462 z" /></g><text
         xml:space="preserve"
         style="font-size:8.46667px;line-height:1.25;font-family:Arimo;-inkscape-font-specification:'Arimo, Normal';font-variant-ligatures:none;letter-spacing:0px;word-spacing:0px;stroke-width:0.264583"
         x="18.494961"
         y="30.751602"
         id="text25"><tspan
           sodipodi:role="line"
           id="tspan25"
           style="font-weight:bold;stroke-width:0.264583"
           x="18.494961"
           y="30.751602">Research</tspan></text></g><g
       id="g44"
       transform="translate(-14.81667,-7.0010565)"
       style="display:inline"><circle
         style="display:inline;fill:#b3d2ff;fill-opacity:1;stroke:none;stroke-width:1.465;stroke-linecap:square;stroke-linejoin:miter;stroke-dasharray:none;paint-order:fill markers stroke"
         id="circle44"
         cx="115.58984"
         cy="37.537758"
         r="3.96875" /><path
         fill="currentColor"
         d="m 110.2651,37.537761 c 0,-2.941089 2.38366,-5.324742 5.32474,-5.324742 2.94109,0 5.32474,2.383653 5.32474,5.324742 0,2.941086 -2.38365,5.324739 -5.32474,5.324739 -2.94108,0 -5.32474,-2.383653 -5.32474,-5.324739 z m 3.9166,-2.265096 c -0.15808,0.08736 -0.25584,0.255838 -0.25584,0.434715 v 3.660759 c 0,0.180958 0.0978,0.347356 0.25584,0.434715 0.15807,0.08736 0.34943,0.08529 0.50543,-0.01045 l 2.99517,-1.830379 c 0.14768,-0.09152 0.23919,-0.251678 0.23919,-0.426396 0,-0.174719 -0.0915,-0.334877 -0.23919,-0.426396 l -2.99517,-1.830377 c -0.15391,-0.09359 -0.34736,-0.09776 -0.50543,-0.01045 z"
         id="path1-4"
         style="fill:#0044aa;fill-opacity:1;stroke-width:0.0207996" /></g><circle
       style="display:inline;fill:#0044aa;fill-opacity:1;stroke:none;stroke-width:1.95333;stroke-linecap:square;stroke-linejoin:miter;stroke-dasharray:none;paint-order:fill markers stroke"
       id="circle45"
       cx="142.61024"
       cy="30.536697"
       r="5.2916665" /><circle
       style="display:inline;fill:#b3d2ff;fill-opacity:1;stroke:none;stroke-width:1.465;stroke-linecap:square;stroke-linejoin:miter;stroke-dasharray:none;paint-order:fill markers stroke"
       id="circle46"
       cx="142.61024"
       cy="30.536697"
       r="3.96875" /><text
       xml:space="preserve"
       style="font-size:6.35px;line-height:1.25;font-family:Arimo;-inkscape-font-specification:'Arimo, Normal';font-variant-ligatures:none;letter-spacing:0px;word-spacing:0px;display:inline;fill:#0044aa;fill-opacity:1;stroke-width:0.264583"
       x="140.39931"
       y="40.831188"
       id="text46"><tspan
         id="tspan46"
         style="font-style:normal;font-variant:normal;font-weight:bold;font-stretch:normal;font-size:6.35px;font-family:Arimo;-inkscape-font-specification:'Arimo Bold';text-align:end;text-anchor:end;fill:#0044aa;fill-opacity:1;stroke-width:0.264583"
         x="140.39931"
         y="40.831188"
         sodipodi:role="line">Analysis</tspan></text><path
       fill="currentColor"
       d="m 142.69922,36.006895 c 2.97212,0 5.38093,-2.408807 5.38093,-5.38093 0,-2.972124 -2.40881,-5.380932 -5.38093,-5.380932 -2.97212,0 -5.38093,2.408808 -5.38093,5.380932 0,2.972123 2.40881,5.38093 5.38093,5.38093 z m -1.34523,-7.398779 h 2.69046 c 0.37204,0 0.67262,0.300574 0.67262,0.672616 v 2.690466 c 0,0.37204 -0.30058,0.672616 -0.67262,0.672616 h -2.69046 c -0.37204,0 -0.67262,-0.300576 -0.67262,-0.672616 v -2.690466 c 0,-0.372042 0.30058,-0.672616 0.67262,-0.672616 z"
       id="path1-1"
       style="display:inline;fill:#0044aa;fill-opacity:1;stroke-width:0.0210192" /></g><g
     inkscape:groupmode="layer"
     id="layer3"
     inkscape:label="Planning"
     style="display:inline"><path
       id="rect16"
       style="opacity:1;fill:#ffffff;stroke-width:1.55481;stroke-linecap:round;stroke-linejoin:round;paint-order:fill markers stroke"
       d="M 4.7625,49.741667 V 83.608334 H 79.639583 V 54.487315 H 42.597917 v -4.745648 z" /><g
       id="g21"
       transform="translate(38.014425,-13.988539)"
       style="display:inline"><g
         id="g19"
         transform="translate(23.473939)"><path
           id="rect2"
           style="fill:#b3d2ff;fill-opacity:1;stroke-width:1.61999;stroke-linecap:square;paint-order:fill markers stroke"
           d="m 29.82867,15.201139 v 0.0062 h -42.666024 l 0.04677,26.709999 h 42.619252 v 0.0067 l 0.0031,-0.0067 h 0.03462 v -0.0708 l 6.44974,-13.28394 -6.449736,-13.283944 v -0.07131 h -0.03462 z"
           sodipodi:nodetypes="cccccccccccccc" /><path
           id="path2"
           style="fill:#ffffff;stroke-width:1.61999;stroke-linecap:square;paint-order:fill markers stroke"
           d="m 31.945337,15.201139 v 0.0062 h -2.078943 v 0.07131 l 6.449736,13.283944 -6.449736,13.283943 v 0.0708 h 2.078943 v 0.0067 l 0.0031,-0.0067 h 0.03462 v -0.0708 L 38.432796,28.562598 31.983061,15.278654 v -0.07131 h -0.03462 z" /></g><text
         xml:space="preserve"
         style="font-size:8.46667px;line-height:1.25;font-family:Arimo;-inkscape-font-specification:'Arimo, Normal';font-variant-ligatures:none;letter-spacing:0px;word-spacing:0px;stroke-width:0.264583"
         x="18.494961"
         y="30.751602"
         id="text20"><tspan
           sodipodi:role="line"
           id="tspan20"
           style="font-weight:bold;stroke-width:0.264583"
           x="18.494961"
           y="30.751602">Planning</tspan></text></g><g
       id="g8"
       transform="translate(-94.720146)"><circle
         style="display:inline;fill:#0044aa;fill-opacity:1;stroke:none;stroke-width:1.95333;stroke-linecap:square;stroke-linejoin:miter;stroke-dasharray:none;paint-order:fill markers stroke"
         id="circle7"
         cx="180.70973"
         cy="30.536697"
         r="5.2916665" /><circle
         style="display:inline;fill:#b3d2ff;fill-opacity:1;stroke:none;stroke-width:1.465;stroke-linecap:square;stroke-linejoin:miter;stroke-dasharray:none;paint-order:fill markers stroke"
         id="circle8"
         cx="180.70973"
         cy="30.536697"
         r="3.96875" /><path
         fill="currentColor"
         d="m 178.3778,28.20506 c 0,-0.428682 0.34853,-0.777214 0.77721,-0.777214 h 1.81553 c 0.20644,0 0.40439,0.08136 0.55012,0.227093 l 1.29333,1.294545 c 0.14572,0.145728 0.22709,0.343675 0.22709,0.550119 v 3.368736 c 0,0.42868 -0.34853,0.777214 -0.77721,0.777214 h -3.10886 c -0.42868,0 -0.77721,-0.348534 -0.77721,-0.777214 z m 2.52594,-0.06679 v 1.13546 c 0,0.161514 0.12994,0.291457 0.29146,0.291457 h 1.13546 z m -1.06867,2.39843 c -0.16151,0 -0.29145,0.129944 -0.29145,0.291458 0,0.161513 0.12994,0.291451 0.29145,0.291451 h 1.74874 c 0.16151,0 0.29145,-0.129938 0.29145,-0.291451 0,-0.161514 -0.12994,-0.291458 -0.29145,-0.291458 z m 0,1.165824 c -0.16151,0 -0.29145,0.129937 -0.29145,0.291451 0,0.161514 0.12994,0.291457 0.29145,0.291457 h 1.74874 c 0.16151,0 0.29145,-0.129943 0.29145,-0.291457 0,-0.161514 -0.12994,-0.291451 -0.29145,-0.291451 z"
         id="path8"
         style="display:inline;fill:#0044aa;fill-opacity:1;stroke-width:0.0121439" /></g><path
       style="display:inline;fill:none;stroke:#0044aa;stroke-width:1.6;stroke-linecap:butt;stroke-linejoin:round;stroke-opacity:1;stroke-dasharray:none"
       d="m 85.658853,35.520313 0,21.034374 c 0,2.23583 15.015107,2.447397 15.015107,0.330729 V 34.395833"
       id="path9"
       sodipodi:nodetypes="ccsc" /><circle
       style="display:inline;fill:#ff6600;fill-opacity:1;stroke:none;stroke-width:1.95333;stroke-linecap:square;stroke-linejoin:miter;stroke-dasharray:none;paint-order:fill markers stroke"
       id="circle9"
       cx="85.989594"
       cy="53.709099"
       r="5.2916665" /><circle
       style="display:inline;fill:#ffccaa;fill-opacity:1;stroke:none;stroke-width:1.465;stroke-linecap:square;stroke-linejoin:miter;stroke-dasharray:none;paint-order:fill markers stroke"
       id="circle10"
       cx="85.989594"
       cy="53.709099"
       r="3.96875" /><path
       fill="currentColor"
       d="m 85.98811,50.673733 c 0.0549,0 0.10968,0.01192 0.15975,0.03458 l 2.24612,0.952575 c 0.26229,0.110875 0.45781,0.369585 0.45662,0.681944 -0.006,1.182671 -0.49238,3.34653 -2.54656,4.330102 -0.1991,0.09538 -0.43039,0.09538 -0.62949,0 -2.05536,-0.983572 -2.5406,-3.147431 -2.54655,-4.330102 -0.001,-0.312359 0.19432,-0.571069 0.45661,-0.681944 l 2.24493,-0.952575 c 0.0501,-0.02265 0.10372,-0.03458 0.15857,-0.03458 z m 0,0.796395 v 4.507742 c 1.64524,-0.796395 2.08755,-2.560865 2.09828,-3.617162 L 85.98811,51.47132 v 0 z"
       id="path10"
       style="display:inline;fill:#ff6600;fill-opacity:1;stroke-width:0.0119221" /><circle
       style="display:inline;fill:#ccffaa;fill-opacity:1;stroke:none;stroke-width:1.465;stroke-linecap:square;stroke-linejoin:miter;stroke-dasharray:none;paint-order:fill markers stroke"
       id="circle11"
       cx="100.879"
       cy="53.781811"
       r="3.96875" /><path
       fill="currentColor"
       d="m 100.87898,59.146193 c -2.962982,0 -5.364381,-2.4014 -5.364381,-5.36438 0,-2.962982 2.401399,-5.364381 5.364381,-5.364381 2.963,0 5.36441,2.401399 5.36441,5.364381 0,2.96298 -2.40141,5.36438 -5.36441,5.36438 z m 2.47266,-7.675674 c -0.22422,-0.163446 -0.53854,-0.113155 -0.70198,0.111059 l -2.502,3.440748 -1.091731,-1.091737 c -0.196974,-0.196973 -0.515484,-0.196973 -0.710362,0 -0.194878,0.196976 -0.196973,0.515483 0,0.710364 l 1.508732,1.508731 c 0.104773,0.104774 0.247261,0.157159 0.393951,0.146683 0.14668,-0.01048 0.28079,-0.08591 0.3667,-0.205357 l 2.84775,-3.918512 c 0.16345,-0.224214 0.11316,-0.538533 -0.11106,-0.701979 z"
       id="path1-5"
       style="display:inline;stroke-width:0.0209546;fill:#338000" /><text
       xml:space="preserve"
       style="display:inline;font-size:6.35px;line-height:1.25;font-family:Arimo;-inkscape-font-specification:'Arimo, Normal';font-variant-ligatures:none;letter-spacing:0px;word-spacing:0px;fill:#0044aa;fill-opacity:1;stroke-width:0.264583"
       x="83.778633"
       y="40.831188"
       id="text43"><tspan
         style="font-style:normal;font-variant:normal;font-weight:bold;font-stretch:normal;font-size:6.35px;font-family:Arimo;-inkscape-font-specification:'Arimo Bold';text-align:end;text-anchor:end;fill:#0044aa;fill-opacity:1;stroke-width:0.264583"
         x="83.778633"
         y="40.831188"
         sodipodi:role="line"
         id="tspan11">Protocol</tspan></text><text
       xml:space="preserve"
       style="font-size:6.35px;line-height:1.25;font-family:Arimo;-inkscape-font-specification:'Arimo, Normal';font-variant-ligatures:none;text-align:start;letter-spacing:0px;word-spacing:0px;text-anchor:start;display:inline;fill:#ff6600;fill-opacity:1;stroke-width:0.264583"
       x="42.848843"
       y="56.69997"
       id="text15"><tspan
         id="tspan15"
         style="font-style:normal;font-variant:normal;font-weight:bold;font-stretch:normal;font-size:6.35px;font-family:Arimo;-inkscape-font-specification:'Arimo Bold';text-align:start;text-anchor:start;fill:#ff6600;fill-opacity:1;stroke-width:0.264583"
         x="42.848843"
         y="56.69997"
         sodipodi:role="line">Peer review</tspan></text><text
       xml:space="preserve"
       transform="scale(0.26458333)"
       id="text16"
       style="font-family:Arimo;font-size:21.33333333px;line-height:1.25;letter-spacing:0px;word-spacing:0px;-inkscape-font-specification:'Arimo, Normal';font-variant-ligatures:none;text-orientation:auto;text-align:center;white-space:pre;shape-inside:url(#rect17)" /><text
       xml:space="preserve"
       transform="scale(0.26458333)"
       id="text19"
       style="font-family:Arimo;font-size:21.33333333px;line-height:1.25;letter-spacing:0px;word-spacing:0px;-inkscape-font-specification:'Arimo, Normal';font-variant-ligatures:none;text-orientation:auto;text-align:center;white-space:pre;shape-inside:url(#rect19)" /><text
       xml:space="preserve"
       style="font-size:4.23333px;line-height:1;font-family:Arimo;-inkscape-font-specification:'Arimo, Normal';font-variant-ligatures:none;text-align:end;letter-spacing:0px;word-spacing:0px;text-anchor:end;white-space:pre;inline-size:71.4654;stroke-width:0.264583"
       x="293.46991"
       y="61.647915"
       id="text23"
       transform="translate(-215.15197,-0.37417734)"><tspan
         x="293.46991"
         y="61.647915"
         id="tspan2">The protocol is assessed by the editor<tspan
   y="61.647915"
   id="tspan3"> </tspan></tspan><tspan
         x="293.46991"
         y="65.881246"
         id="tspan5">for fitting in the venue <tspan
   style="font-weight:bold;fill:#ff6600"
   id="tspan4">before data</tspan><tspan
   y="65.881246"
   id="tspan6"> </tspan></tspan><tspan
         x="293.46991"
         y="70.114575"
         id="tspan8"><tspan
   style="font-weight:bold;fill:#ff6600"
   id="tspan7">collection starts</tspan>. If within-scope and<tspan
   y="70.114575"
   id="tspan9"> </tspan></tspan><tspan
         x="293.46991"
         y="74.347905"
         id="tspan10">of potential interest, it is sent to<tspan
   y="74.347905"
   id="tspan12"> </tspan></tspan><tspan
         x="293.46991"
         y="78.581235"
         id="tspan14">experts for review. RRs add an <tspan
   style="font-weight:bold;fill:#ff6600"
   id="tspan13">early</tspan><tspan
   y="78.581235"
   id="tspan16"> </tspan></tspan><tspan
         x="293.46991"
         y="82.814565"
         id="tspan18"><tspan
   style="font-weight:bold;fill:#ff6600"
   id="tspan17">quality control layer</tspan> to protect from<tspan
   y="82.814565"
   id="tspan19"> </tspan></tspan><tspan
         x="293.46991"
         y="87.047895"
         id="tspan21">research waste.</tspan></text><text
       xml:space="preserve"
       style="font-size:6.35px;line-height:0.8;font-family:Arimo;-inkscape-font-specification:'Arimo, Normal';font-variant-ligatures:none;text-align:start;letter-spacing:0px;word-spacing:0px;text-anchor:start;white-space:pre;inline-size:36.5983;display:inline;fill:#338000;fill-opacity:1;stroke-width:0.264583"
       x="109.52384"
       y="56.69997"
       id="text26"
       transform="translate(-14.194874,9.412768)"><tspan
         x="109.52384"
         y="56.69997"
         id="tspan24"><tspan
           style="font-weight:bold;-inkscape-font-specification:'Arimo Bold'"
           id="tspan23">Protocol </tspan></tspan><tspan
         x="109.52384"
         y="61.77997"
         id="tspan34"><tspan
           style="font-weight:bold;-inkscape-font-specification:'Arimo Bold'"
           id="tspan27">acceptance</tspan></tspan></text><text
       xml:space="preserve"
       style="font-size:4.23333px;line-height:1;font-family:Arimo;-inkscape-font-specification:'Arimo, Normal';font-variant-ligatures:none;text-align:start;letter-spacing:0px;word-spacing:0px;text-anchor:start;white-space:pre;inline-size:63.9216;stroke-width:0.264583"
       x="85.846275"
       y="77.787498"
       id="text29"
       transform="translate(9.4828604,-1.5875)"><tspan
         x="85.846275"
         y="77.787498"
         id="tspan36">Upon acceptance, data collection </tspan><tspan
         x="85.846275"
         y="82.020825"
         id="tspan38">may start. The journal <tspan
   style="font-weight:bold;fill:#338000"
   id="tspan37">commits </tspan></tspan><tspan
         x="85.846275"
         y="86.254155"
         id="tspan40"><tspan
   style="font-weight:bold;fill:#338000"
   id="tspan39">to publish</tspan> the manuscript </tspan><tspan
         x="85.846275"
         y="90.487485"
         id="tspan41">independently of the direction of </tspan><tspan
         x="85.846275"
         y="94.720815"
         id="tspan42">the results</tspan></text><text
       xml:space="preserve"
       style="font-size:6.35px;line-height:1.25;font-family:Arimo;-inkscape-font-specification:'Arimo, Normal';font-variant-ligatures:none;text-align:start;letter-spacing:0px;word-spacing:0px;text-anchor:start;display:inline;fill:#ff6600;fill-opacity:1;stroke-width:0.264583"
       x="194.01649"
       y="56.69997"
       id="text32"><tspan
         id="tspan32"
         style="font-style:normal;font-variant:normal;font-weight:bold;font-stretch:normal;font-size:6.35px;font-family:Arimo;-inkscape-font-specification:'Arimo Bold';text-align:start;text-anchor:start;fill:#ff6600;fill-opacity:1;stroke-width:0.264583"
         x="194.01649"
         y="56.69997"
         sodipodi:role="line">Final review</tspan></text><text
       xml:space="preserve"
       style="font-size:4.23333px;line-height:1;font-family:Arimo;-inkscape-font-specification:'Arimo, Normal';font-variant-ligatures:none;text-align:end;letter-spacing:0px;word-spacing:0px;text-anchor:end;white-space:pre;inline-size:64.9173;display:inline;stroke-width:0.264583"
       x="293.46991"
       y="61.647915"
       id="text23-1"
       transform="translate(-62.994514,-0.26475822)"><tspan
         x="293.46991"
         y="61.647915"
         id="tspan43">The final manuscript is peer-</tspan><tspan
         x="293.46991"
         y="65.881246"
         id="tspan44">reviewed. Acceptance is<tspan
   y="65.881246"
   id="tspan45"> </tspan></tspan><tspan
         x="293.46991"
         y="70.114575"
         id="tspan47">contingent on adherence to the<tspan
   y="70.114575"
   id="tspan48"> </tspan></tspan><tspan
         x="293.46991"
         y="74.347905"
         id="tspan49">approved protocol and transparent<tspan
   y="74.347905"
   id="tspan51"> </tspan></tspan><tspan
         x="293.46991"
         y="78.581235"
         id="tspan52">reporting of all deviations.<tspan
   y="78.581235"
   id="tspan53"> </tspan></tspan><tspan
         x="293.46991"
         y="82.814565"
         id="tspan54">Reviewers and editors assess that<tspan
   y="82.814565"
   id="tspan55"> </tspan></tspan><tspan
         x="293.46991"
         y="87.047895"
         id="tspan57"><tspan
           style="font-weight:bold;fill:#ff6600"
           id="tspan56">the research faithfully</tspan><tspan
           y="87.047895"
           id="tspan59"> </tspan></tspan><tspan
         x="293.46991"
         y="91.281224"
         id="tspan61"><tspan
   style="font-weight:bold;fill:#ff6600"
   id="tspan60">implemented the protocol</tspan>.</tspan></text></g><g
     inkscape:groupmode="layer"
     id="g24"
     inkscape:label="Inception"
     style="display:inline"><g
       id="g23"
       transform="translate(-6.9647595,-13.988539)"><g
         id="g22"
         transform="translate(23.473939)"><path
           id="path21"
           style="fill:#b3d2ff;fill-opacity:1;stroke-width:1.61999;stroke-linecap:square;paint-order:fill markers stroke"
           d="m 29.82867,15.201139 v 0.0062 h -42.666024 l 0.04677,26.709999 h 42.619252 v 0.0067 l 0.0031,-0.0067 h 0.03462 v -0.0708 l 6.44974,-13.28394 -6.449736,-13.283944 v -0.07131 h -0.03462 z"
           sodipodi:nodetypes="cccccccccccccc" /><path
           id="path22"
           style="fill:#ffffff;stroke-width:1.61999;stroke-linecap:square;paint-order:fill markers stroke"
           d="m 31.945337,15.201139 v 0.0062 h -2.078943 v 0.07131 l 6.449736,13.283944 -6.449736,13.283943 v 0.0708 h 2.078943 v 0.0067 l 0.0031,-0.0067 h 0.03462 v -0.0708 L 38.432796,28.562598 31.983061,15.278654 v -0.07131 h -0.03462 z" /></g><text
         xml:space="preserve"
         style="font-size:8.46667px;line-height:1.25;font-family:Arimo;-inkscape-font-specification:'Arimo, Normal';font-variant-ligatures:none;letter-spacing:0px;word-spacing:0px;stroke-width:0.264583"
         x="14.261627"
         y="30.751602"
         id="text22"><tspan
           sodipodi:role="line"
           id="tspan22"
           style="font-weight:bold;stroke-width:0.264583"
           x="14.261627"
           y="30.751602">Inception</tspan></text></g><g
       id="g34"
       transform="translate(-5.291667,-6.879167)"
       style="display:inline"><circle
         style="display:inline;opacity:1;fill:#0044aa;fill-opacity:1;stroke:none;stroke-width:1.95333;stroke-linecap:square;stroke-linejoin:miter;stroke-dasharray:none;paint-order:fill markers stroke"
         id="circle34"
         cx="46.831249"
         cy="37.415871"
         r="5.2916665" /><circle
         style="display:inline;opacity:1;fill:#b3d2ff;fill-opacity:1;stroke:none;stroke-width:1.465;stroke-linecap:square;stroke-linejoin:miter;stroke-dasharray:none;paint-order:fill markers stroke"
         id="path34"
         cx="46.831249"
         cy="37.415871"
         r="3.96875" /></g><path
       fill="currentColor"
       d="m 40.42616,28.310114 c -0.307061,0 -0.55671,0.249649 -0.55671,0.55671 v 3.618614 c 0,0.100033 0.05393,0.193107 0.140917,0.24182 0.08699,0.04872 0.193978,0.04784 0.280095,-0.0036 l 1.249117,-0.748949 1.248248,0.748949 c 0.08612,0.05133 0.193108,0.05307 0.280095,0.0036 0.08699,-0.04958 0.141787,-0.141787 0.141787,-0.24182 v -3.618614 c 0,-0.307061 -0.24965,-0.55671 -0.55671,-0.55671 z"
       id="path1-7"
       style="display:inline;fill:#0044aa;fill-opacity:1;stroke-width:0.00869854" /><text
       xml:space="preserve"
       style="font-size:6.35px;line-height:1.25;font-family:Arimo;-inkscape-font-specification:'Arimo, Normal';font-variant-ligatures:none;letter-spacing:0px;word-spacing:0px;display:inline;fill:#0044aa;fill-opacity:1;stroke-width:0.264583"
       x="39.328594"
       y="40.831188"
       id="text35"><tspan
         id="tspan35"
         style="font-style:normal;font-variant:normal;font-weight:bold;font-stretch:normal;font-size:6.35px;font-family:Arimo;-inkscape-font-specification:'Arimo Bold';text-align:end;text-anchor:end;fill:#0044aa;fill-opacity:1;stroke-width:0.264583"
         x="39.328594"
         y="40.831188"
         sodipodi:role="line">Hypothesis</tspan></text><path
       style="display:inline;fill:#0044aa;fill-opacity:1;stroke:#0044aa;stroke-width:0.998238;stroke-linecap:butt;stroke-linejoin:miter;stroke-dasharray:none;stroke-opacity:1"
       d="m 41.539574,34.937899 v 6.239403"
       id="path42"
       sodipodi:nodetypes="cc" /><path
       style="display:inline;fill:#0044aa;fill-opacity:1;stroke:#0044aa;stroke-width:0.998238;stroke-linecap:butt;stroke-linejoin:miter;stroke-dasharray:none;stroke-opacity:1"
       d="m 142.69922,34.937899 v 6.239403"
       id="path4"
       sodipodi:nodetypes="cc" /><path
       style="display:inline;fill:#0044aa;fill-opacity:1;stroke:#0044aa;stroke-width:0.998238;stroke-linecap:butt;stroke-linejoin:miter;stroke-dasharray:none;stroke-opacity:1"
       d="m 180.70973,34.937899 v 6.239403"
       id="path5"
       sodipodi:nodetypes="cc" /><path
       style="display:inline;fill:#0044aa;fill-opacity:1;stroke:#0044aa;stroke-width:0.998238;stroke-linecap:butt;stroke-linejoin:miter;stroke-dasharray:none;stroke-opacity:1"
       d="m 231.50905,34.937899 v 6.239403"
       id="path6"
       sodipodi:nodetypes="cc" /><path
       style="display:inline;fill:#ff6600;fill-opacity:1;stroke:#ff6600;stroke-width:0.998238;stroke-linecap:butt;stroke-linejoin:miter;stroke-dasharray:none;stroke-opacity:1"
       d="m 194.99704,34.937899 0,15.968014"
       id="path32"
       sodipodi:nodetypes="cc" /></g></svg>
