<?xml version="1.0" encoding="UTF-8" standalone="no"?>
<!-- Created with Inkscape (http://www.inkscape.org/) -->

<svg
   width="238mm"
   height="94mm"
   viewBox="0 0 238 94"
   version="1.1"
   id="svg1"
   xml:space="preserve"
   xmlns="http://www.w3.org/2000/svg"
   xmlns:svg="http://www.w3.org/2000/svg">
     <defs
   id="defs1">
     <style
   type="text/css"
   id="style1"><![CDATA[
      @import url(https://fonts.googleapis.com/css?family=Arimo:400,800,400italic);
     ]]></style>
     <rect
   x="612.35447"
   y="403.75797"
   width="183.84776"
   height="79.19596"
   id="rect1" /></defs><g
   id="layer1"><path
     style="display:inline;fill:#0044aa;stroke:#0044aa;stroke-width:1.61278;stroke-linecap:butt;stroke-linejoin:miter;stroke-dasharray:none;stroke-opacity:1"
     d="M 3.6718256,30.536699 H 231.50941"
     id="path1" /></g><g
   id="g33"
   style="display:inline"
   data-step="5"><path
     id="path30"
     style="display:inline;fill:#b3d2ff;fill-opacity:1;stroke-width:1.61999;stroke-linecap:square;paint-order:fill markers stroke"
     d="m 231.74481,1.2126025 -49.21412,0.0062 0.0468,26.7099955 h 42.61925 c 0,0 4.29768,-0.04657 6.53893,-0.0708 0,0 -0.0312,-17.763315 0.009,-26.6453955 z" /><text
     xml:space="preserve"
     style="font-size:8.46667px;line-height:1.25;font-family:Arimo;-inkscape-font-specification:'Arimo, Normal';font-variant-ligatures:none;letter-spacing:0px;word-spacing:0px;display:inline;stroke-width:0.264583"
     x="195.15158"
     y="16.76306"
     id="text31"><tspan
       id="tspan31"
       style="font-weight:bold;stroke-width:0.264583"
       x="195.15158"
       y="16.76306">Publish</tspan></text><circle
     style="display:inline;fill:#0044aa;fill-opacity:1;stroke:none;stroke-width:1.95333;stroke-linecap:square;stroke-linejoin:miter;stroke-dasharray:none;paint-order:fill markers stroke"
     id="circle47"
     cx="231.50905"
     cy="30.536697"
     r="5.2916665" /><circle
     style="display:inline;fill:#b3d2ff;fill-opacity:1;stroke:none;stroke-width:1.465;stroke-linecap:square;stroke-linejoin:miter;stroke-dasharray:none;paint-order:fill markers stroke"
     id="circle48"
     cx="231.50905"
     cy="30.536697"
     r="3.96875" /><path
     fill="currentColor"
     d="m 229.15756,27.399511 c 0.21689,0 0.39215,0.175238 0.39215,0.392145 v 0.196073 l 0.84556,-0.210776 c 0.46692,-0.116425 0.95955,-0.06256 1.39093,0.153188 0.5674,0.284313 1.23526,0.284313 1.80266,0 l 0.11769,-0.05885 c 0.25247,-0.127449 0.54902,0.05635 0.54902,0.338234 v 3.427645 c 0,0.162985 -0.10173,0.310037 -0.2549,0.367638 l -0.42523,0.159313 c -0.56618,0.212005 -1.19605,0.178917 -1.73651,-0.09069 -0.46445,-0.232842 -0.99752,-0.290432 -1.5012,-0.164216 l -0.78797,0.196083 v 1.176446 c 0,0.216916 -0.17525,0.392155 -0.39215,0.392155 -0.21691,0 -0.39216,-0.175239 -0.39216,-0.392155 v -5.490099 c 0,-0.216907 0.17525,-0.392145 0.39216,-0.392145 z m 0.39215,2.292859 0.78429,-0.170348 v 0.802685 l -0.78429,0.170348 v 0.802685 l 0.59803,-0.149513 c 0.0624,-0.01596 0.12377,-0.02936 0.18626,-0.04042 v -0.783088 l 0.47672,-0.102987 c 0.10173,-0.02202 0.20464,-0.03061 0.30759,-0.02576 v -0.784313 c 0.16666,0.0045 0.33334,0.03185 0.49508,0.07849 l 0.28921,0.08458 v 0.817387 l -0.51101,-0.150737 c -0.0894,-0.02574 -0.18136,-0.04167 -0.27328,-0.04653 v 0.874991 c 0.26715,0.02326 0.53062,0.08211 0.78429,0.176468 v -0.855387 l 0.2782,0.08209 c 0.16545,0.04901 0.33455,0.07849 0.50611,0.09067 v -0.78675 c -0.0955,-0.01011 -0.19117,-0.02824 -0.28431,-0.05511 l -0.5,-0.147047 v -0.759795 c -0.15923,-0.04653 -0.31615,-0.107836 -0.46811,-0.183821 -0.10052,-0.05026 -0.20712,-0.08582 -0.31618,-0.107848 v 0.887244 c -0.15924,-0.0045 -0.31862,0.01011 -0.47426,0.04416 l -0.31005,0.06741 v -0.921543 l -0.78429,0.196071 z m 3.1372,1.821046 c 0.20588,0.01841 0.41544,-0.009 0.61273,-0.08333 l 0.17157,-0.0637 v -0.878672 l -0.0967,0.02202 c -0.22547,0.05273 -0.4571,0.0699 -0.68749,0.05511 z m 0.7843,-1.830859 v -0.867628 c -0.25611,0.07477 -0.5196,0.111467 -0.7843,0.111467 v 0.850486 c 0.17034,0.01717 0.34314,0.0056 0.51103,-0.03185 l 0.27327,-0.0637 z"
     id="path49"
     style="display:inline;fill:#0044aa;fill-opacity:1;stroke-width:0.0122546" /><circle
     style="display:inline;fill:#ff6600;fill-opacity:1;stroke:none;stroke-width:1.95333;stroke-linecap:square;stroke-linejoin:miter;stroke-dasharray:none;paint-order:fill markers stroke"
     id="circle51"
     cx="194.99704"
     cy="30.536697"
     r="5.2916665" /><circle
     style="display:inline;fill:#ffccaa;fill-opacity:1;stroke:none;stroke-width:1.465;stroke-linecap:square;stroke-linejoin:miter;stroke-dasharray:none;paint-order:fill markers stroke"
     id="circle52"
     cx="194.99704"
     cy="30.536697"
     r="3.96875" /><path
     style="display:inline;fill:#ff6600;fill-opacity:1;stroke:#ff6600;stroke-width:1.27069;stroke-linecap:butt;stroke-linejoin:miter;stroke-dasharray:none;stroke-opacity:1"
     d="M 194.87815,34.937899 V 74.84439"
     id="path52" /><path
     style="display:inline;fill:#0044aa;fill-opacity:1;stroke:#0044aa;stroke-width:1.07315;stroke-linecap:butt;stroke-linejoin:miter;stroke-dasharray:none;stroke-opacity:1"
     d="M 231.50876,34.937899 V 63.401161"
     id="path55" /><path
     fill="currentColor"
     d="m 194.99556,27.501332 c 0.0549,0 0.10968,0.01192 0.15975,0.03458 l 2.24612,0.952575 c 0.26229,0.110875 0.45781,0.369585 0.45662,0.681944 -0.006,1.182671 -0.49238,3.34653 -2.54656,4.330102 -0.1991,0.09538 -0.43039,0.09538 -0.62949,0 -2.05536,-0.983572 -2.5406,-3.147431 -2.54655,-4.330102 -0.001,-0.312359 0.19432,-0.571069 0.45661,-0.681944 l 2.24493,-0.952575 c 0.0501,-0.02265 0.10372,-0.03458 0.15857,-0.03458 z m 0,0.796395 v 4.507742 c 1.64524,-0.796395 2.08755,-2.560865 2.09828,-3.617162 l -2.09828,-0.889388 v 0 z"
     id="path1-2"
     style="display:inline;fill:#ff6600;fill-opacity:1;stroke-width:0.0119221" /><text
     xml:space="preserve"
     style="font-size:6.35px;line-height:1.25;font-family:Arimo;-inkscape-font-specification:'Arimo, Normal';font-variant-ligatures:none;letter-spacing:0px;word-spacing:0px;display:inline;fill:#0044aa;fill-opacity:1;stroke-width:0.264583"
     x="229.82727"
     y="40.831188"
     id="text58"><tspan
       id="tspan58"
       style="font-style:normal;font-variant:normal;font-weight:bold;font-stretch:normal;font-size:6.35px;font-family:Arimo;-inkscape-font-specification:'Arimo Bold';text-align:end;text-anchor:end;fill:#0044aa;fill-opacity:1;stroke-width:0.264583"
       x="229.82727"
       y="40.831188">Accept</tspan></text><text
     xml:space="preserve"
     style="font-size:4.23333px;line-height:1;font-family:Arimo;-inkscape-font-specification:'Arimo, Normal';font-variant-ligatures:none;text-align:end;letter-spacing:0px;word-spacing:0px;text-anchor:end;white-space:pre;inline-size:32.3627;display:inline;stroke-width:0.264583"
     x="61.318916"
     y="62.113438"
     id="text59"
     transform="translate(168.51074,-15.506334)"><tspan
       x="61.318916"
       y="62.113438"
       id="tspan1">An accept<tspan
   y="62.113438"
   id="tspan54"> </tspan></tspan><tspan
       x="61.318916"
       y="66.346768"
       id="tspan56">decision is<tspan
   y="66.346768"
   id="tspan57"> </tspan></tspan><tspan
       x="61.318916"
       y="70.580094"
       id="tspan59">issued if the<tspan
   y="70.580094"
   id="tspan60"> </tspan></tspan><tspan
       x="61.318916"
       y="74.813424"
       id="tspan61">review process<tspan
   y="74.813424"
   id="tspan62"> </tspan></tspan><tspan
       x="61.318916"
       y="79.046754"
       id="tspan63">is successful</tspan></text><path
     id="rect56"
     style="opacity:0;fill:#ffffff;fill-opacity:1;stroke:none;stroke-width:0.964999;stroke-linecap:square;stroke-linejoin:round;stroke-dasharray:none;stroke-opacity:1;paint-order:fill markers stroke"
     d="m 159.7373,69.821875 c 0,1.870859 0,3.741718 0,5.612577 -12.16084,0 -24.32169,0 -36.48253,0 0,5.986715 0,11.973429 0,17.960144 34.86092,0 69.72185,0 104.58277,0 0,-7.857574 0,-15.715147 0,-23.572721 -22.70008,0 -45.40016,0 -68.10024,0 z" /><rect
     style="fill:#ffffff;fill-opacity:1;stroke:#ff6600;stroke-width:0.488409;stroke-linecap:round;stroke-linejoin:round;stroke-dasharray:none;stroke-opacity:1;paint-order:fill markers stroke"
     id="rect57"
     width="186.98387"
     height="17.216951"
     x="25.508064"
     y="74.884773"
     ry="1.5651776" /><text
     xml:space="preserve"
     style="font-size:6.35px;line-height:1.25;font-family:Arimo;-inkscape-font-specification:'Arimo, Normal';font-variant-ligatures:none;text-align:start;letter-spacing:0px;word-spacing:0px;text-anchor:start;fill:#ff6600;fill-opacity:1;stroke-width:0.264583"
     x="157.84132"
     y="73.772087"
     id="text55"><tspan
       id="tspan55"
       style="font-style:normal;font-variant:normal;font-weight:bold;font-stretch:normal;font-size:6.35px;font-family:Arimo;-inkscape-font-specification:'Arimo Bold';text-align:start;text-anchor:start;fill:#ff6600;fill-opacity:1;stroke-width:0.264583"
       x="157.84132"
       y="73.772087">Peer review</tspan></text><text
     xml:space="preserve"
     transform="scale(0.26458333)"
     id="text1"
     style="text-align:start;writing-mode:lr-tb;direction:ltr;white-space:pre;shape-inside:url(#rect1);display:inline;fill:#000000" /><text
     xml:space="preserve"
     style="font-size:3.175px;text-align:start;writing-mode:lr-tb;direction:ltr;text-anchor:start;fill:#000000;stroke-width:0.264583"
     x="39.475708"
     y="113.37573"
     id="text37"><tspan
       id="tspan36"
       style="stroke-width:0.264583"
       x="39.475708"
       y="113.37573" /></text><text
     xml:space="preserve"
     style="font-size:4.23333px;text-align:start;writing-mode:lr-tb;direction:ltr;text-anchor:start;white-space:pre;inline-size:181.682;display:inline;fill:#000000;stroke-width:0.264583"
     x="28.063299"
     y="78.577248"
     id="text45"
     transform="translate(1.8391383,0.61115423)"><tspan
       x="28.063299"
       y="78.577248"
       id="tspan65"><tspan
         style="font-family:Arimo;-inkscape-font-specification:Arimo"
         id="tspan64">The manuscript is assessed by the editor for fitting in the venue.
</tspan></tspan><tspan
       x="28.063299"
       y="83.976601"
       id="tspan68"><tspan
         style="font-family:Arimo;-inkscape-font-specification:Arimo"
         id="tspan66">If within-scope and of potential interest, it is sent to experts for review. Peer review is the </tspan><tspan
         style="font-weight:bold"
         id="tspan67">final </tspan></tspan><tspan
       x="28.063299"
       y="89.375954"
       id="tspan71"><tspan
         style="font-weight:bold"
         id="tspan69">quality control layer</tspan><tspan
         style="font-family:Arimo;-inkscape-font-specification:Arimo"
         id="tspan70"> that shields the literature from pollution from substandard research.</tspan></tspan></text></g><g
   id="g30"
   style="display:inline"
   data-step="4"><g
     id="g29"
     transform="translate(127.44382,-13.988539)"
     style="display:inline"><g
       id="g28"
       transform="translate(23.473939)"><path
         id="path27"
         style="fill:#b3d2ff;fill-opacity:1;stroke-width:1.61999;stroke-linecap:square;paint-order:fill markers stroke"
         d="m 29.82867,15.201139 v 0.0062 h -42.666024 l 0.04677,26.709999 h 42.619252 v 0.0067 l 0.0031,-0.0067 h 0.03462 v -0.0708 l 6.44974,-13.28394 -6.449736,-13.283944 v -0.07131 h -0.03462 z" /><path
         id="path28"
         style="fill:#ffffff;stroke-width:1.61999;stroke-linecap:square;paint-order:fill markers stroke"
         d="m 31.945337,15.201139 v 0.0062 h -2.078943 v 0.07131 l 6.449736,13.283944 -6.449736,13.283943 v 0.0708 h 2.078943 v 0.0067 l 0.0031,-0.0067 h 0.03462 v -0.0708 L 38.432796,28.562598 31.983061,15.278654 v -0.07131 h -0.03462 z" /></g><text
       xml:space="preserve"
       style="font-size:8.46667px;line-height:1.25;font-family:Arimo;-inkscape-font-specification:'Arimo, Normal';font-variant-ligatures:none;letter-spacing:0px;word-spacing:0px;stroke-width:0.264583"
       x="17.965794"
       y="30.751602"
       id="text28"><tspan
         id="tspan28"
         style="font-weight:bold;stroke-width:0.264583"
         x="17.965794"
         y="30.751602">Reporting</tspan></text></g><circle
     style="display:inline;fill:#0044aa;fill-opacity:1;stroke:none;stroke-width:1.95333;stroke-linecap:square;stroke-linejoin:miter;stroke-dasharray:none;paint-order:fill markers stroke"
     id="circle49"
     cx="180.70973"
     cy="30.536697"
     r="5.2916665" /><circle
     style="display:inline;fill:#b3d2ff;fill-opacity:1;stroke:none;stroke-width:1.465;stroke-linecap:square;stroke-linejoin:miter;stroke-dasharray:none;paint-order:fill markers stroke"
     id="circle50"
     cx="180.70973"
     cy="30.536697"
     r="3.96875" /><text
     xml:space="preserve"
     style="font-size:6.35px;line-height:1.25;font-family:Arimo;-inkscape-font-specification:'Arimo, Normal';font-variant-ligatures:none;letter-spacing:0px;word-spacing:0px;display:inline;fill:#0044aa;fill-opacity:1;stroke-width:0.264583"
     x="178.49879"
     y="40.831188"
     id="text50"><tspan
       id="tspan50"
       style="font-style:normal;font-variant:normal;font-weight:bold;font-stretch:normal;font-size:6.35px;font-family:Arimo;-inkscape-font-specification:'Arimo Bold';text-align:end;text-anchor:end;fill:#0044aa;fill-opacity:1;stroke-width:0.264583"
       x="178.49879"
       y="40.831188">Paper</tspan></text><text
     xml:space="preserve"
     style="font-size:4.23333px;line-height:1;font-family:Arimo;-inkscape-font-specification:'Arimo, Normal';font-variant-ligatures:none;text-align:end;letter-spacing:0px;word-spacing:0px;text-anchor:end;white-space:pre;inline-size:41.6231;display:inline;stroke-width:0.264583"
     x="61.318916"
     y="62.113438"
     id="text51"
     transform="translate(117.18125,-15.506334)"><tspan
       x="61.318916"
       y="62.113438"
       id="tspan72">Research is<tspan
   y="62.113438"
   id="tspan73"> </tspan></tspan><tspan
       x="61.318916"
       y="66.346768"
       id="tspan74">formalized in a<tspan
   y="66.346768"
   id="tspan75"> </tspan></tspan><tspan
       x="61.318916"
       y="70.580094"
       id="tspan76">document for<tspan
   y="70.580094"
   id="tspan77"> </tspan></tspan><tspan
       x="61.318916"
       y="74.813424"
       id="tspan78">dissemination and<tspan
   y="74.813424"
   id="tspan79"> </tspan></tspan><tspan
       x="61.318916"
       y="79.046754"
       id="tspan80">submitted to a journal</tspan></text><path
     style="display:inline;fill:#0044aa;fill-opacity:1;stroke:#0044aa;stroke-width:1.07315;stroke-linecap:butt;stroke-linejoin:miter;stroke-dasharray:none;stroke-opacity:1"
     d="M 180.71095,34.937899 V 63.401161"
     id="path51" /><path
     fill="currentColor"
     d="m 178.3778,28.20506 c 0,-0.428682 0.34853,-0.777214 0.77721,-0.777214 h 1.81553 c 0.20644,0 0.40439,0.08136 0.55012,0.227093 l 1.29333,1.294545 c 0.14572,0.145728 0.22709,0.343675 0.22709,0.550119 v 3.368736 c 0,0.42868 -0.34853,0.777214 -0.77721,0.777214 h -3.10886 c -0.42868,0 -0.77721,-0.348534 -0.77721,-0.777214 z m 2.52594,-0.06679 v 1.13546 c 0,0.161514 0.12994,0.291457 0.29146,0.291457 h 1.13546 z m -1.06867,2.39843 c -0.16151,0 -0.29145,0.129944 -0.29145,0.291458 0,0.161513 0.12994,0.291451 0.29145,0.291451 h 1.74874 c 0.16151,0 0.29145,-0.129938 0.29145,-0.291451 0,-0.161514 -0.12994,-0.291458 -0.29145,-0.291458 z m 0,1.165824 c -0.16151,0 -0.29145,0.129937 -0.29145,0.291451 0,0.161514 0.12994,0.291457 0.29145,0.291457 h 1.74874 c 0.16151,0 0.29145,-0.129943 0.29145,-0.291457 0,-0.161514 -0.12994,-0.291451 -0.29145,-0.291451 z"
     id="path1-0"
     style="display:inline;fill:#0044aa;fill-opacity:1;stroke-width:0.0121439" /></g><g
   id="g27"
   style="display:inline"
   data-step="3"><g
     id="g26"
     transform="translate(82.993621,-13.988539)"
     style="display:inline"><g
       id="g25"
       transform="translate(23.473939)"><path
         id="path24"
         style="fill:#b3d2ff;fill-opacity:1;stroke-width:1.61999;stroke-linecap:square;paint-order:fill markers stroke"
         d="m 29.82867,15.201139 v 0.0062 h -42.666024 l 0.04677,26.709999 h 42.619252 v 0.0067 l 0.0031,-0.0067 h 0.03462 v -0.0708 l 6.44974,-13.28394 -6.449736,-13.283944 v -0.07131 h -0.03462 z" /><path
         id="path25"
         style="fill:#ffffff;stroke-width:1.61999;stroke-linecap:square;paint-order:fill markers stroke"
         d="m 31.945337,15.201139 v 0.0062 h -2.078943 v 0.07131 l 6.449736,13.283944 -6.449736,13.283943 v 0.0708 h 2.078943 v 0.0067 l 0.0031,-0.0067 h 0.03462 v -0.0708 L 38.432796,28.562598 31.983061,15.278654 v -0.07131 h -0.03462 z" /></g><text
       xml:space="preserve"
       style="font-size:8.46667px;line-height:1.25;font-family:Arimo;-inkscape-font-specification:'Arimo, Normal';font-variant-ligatures:none;letter-spacing:0px;word-spacing:0px;stroke-width:0.264583"
       x="18.494961"
       y="30.751602"
       id="text25"><tspan
         id="tspan25"
         style="font-weight:bold;stroke-width:0.264583"
         x="18.494961"
         y="30.751602">Research</tspan></text></g><g
     id="g44"
     transform="translate(-14.81667,-7.0010565)"
     style="display:inline"><circle
       style="display:inline;fill:#b3d2ff;fill-opacity:1;stroke:none;stroke-width:1.465;stroke-linecap:square;stroke-linejoin:miter;stroke-dasharray:none;paint-order:fill markers stroke"
       id="circle44"
       cx="115.58984"
       cy="37.537758"
       r="3.96875" /><path
       fill="currentColor"
       d="m 110.2651,37.537761 c 0,-2.941089 2.38366,-5.324742 5.32474,-5.324742 2.94109,0 5.32474,2.383653 5.32474,5.324742 0,2.941086 -2.38365,5.324739 -5.32474,5.324739 -2.94108,0 -5.32474,-2.383653 -5.32474,-5.324739 z m 3.9166,-2.265096 c -0.15808,0.08736 -0.25584,0.255838 -0.25584,0.434715 v 3.660759 c 0,0.180958 0.0978,0.347356 0.25584,0.434715 0.15807,0.08736 0.34943,0.08529 0.50543,-0.01045 l 2.99517,-1.830379 c 0.14768,-0.09152 0.23919,-0.251678 0.23919,-0.426396 0,-0.174719 -0.0915,-0.334877 -0.23919,-0.426396 l -2.99517,-1.830377 c -0.15391,-0.09359 -0.34736,-0.09776 -0.50543,-0.01045 z"
       id="path1-4"
       style="fill:#0044aa;fill-opacity:1;stroke-width:0.0207996" /></g><text
     xml:space="preserve"
     style="font-size:4.93889px;line-height:1;font-family:Arimo;-inkscape-font-specification:'Arimo, Normal';font-variant-ligatures:none;text-align:end;letter-spacing:0px;word-spacing:0px;text-anchor:end;white-space:pre;inline-size:52.7355;display:inline;fill:#0044aa;fill-opacity:1;stroke-width:0.264583"
     x="61.318916"
     y="62.113438"
     id="text44-0"
     transform="translate(38.05539,6.0415694)"><tspan
       x="61.318916"
       y="62.113438"
       id="tspan82"><tspan
         style="font-weight:bold"
         id="tspan81">Data collection</tspan></tspan></text><path
     style="display:inline;fill:#0044aa;fill-opacity:1;stroke:#0044aa;stroke-width:1.17097;stroke-linecap:butt;stroke-linejoin:miter;stroke-dasharray:none;stroke-opacity:1"
     d="M 100.77308,34.937899 V 68.82626"
     id="path45" /><circle
     style="display:inline;fill:#0044aa;fill-opacity:1;stroke:none;stroke-width:1.95333;stroke-linecap:square;stroke-linejoin:miter;stroke-dasharray:none;paint-order:fill markers stroke"
     id="circle45"
     cx="142.61024"
     cy="30.536697"
     r="5.2916665" /><circle
     style="display:inline;fill:#b3d2ff;fill-opacity:1;stroke:none;stroke-width:1.465;stroke-linecap:square;stroke-linejoin:miter;stroke-dasharray:none;paint-order:fill markers stroke"
     id="circle46"
     cx="142.61024"
     cy="30.536697"
     r="3.96875" /><text
     xml:space="preserve"
     style="font-size:6.35px;line-height:1.25;font-family:Arimo;-inkscape-font-specification:'Arimo, Normal';font-variant-ligatures:none;letter-spacing:0px;word-spacing:0px;display:inline;fill:#0044aa;fill-opacity:1;stroke-width:0.264583"
     x="140.39931"
     y="40.831188"
     id="text46"><tspan
       id="tspan46"
       style="font-style:normal;font-variant:normal;font-weight:bold;font-stretch:normal;font-size:6.35px;font-family:Arimo;-inkscape-font-specification:'Arimo Bold';text-align:end;text-anchor:end;fill:#0044aa;fill-opacity:1;stroke-width:0.264583"
       x="140.39931"
       y="40.831188">Analysis</tspan></text><text
     xml:space="preserve"
     style="font-size:4.23333px;line-height:1;font-family:Arimo;-inkscape-font-specification:'Arimo, Normal';font-variant-ligatures:none;text-align:end;letter-spacing:0px;word-spacing:0px;text-anchor:end;white-space:pre;inline-size:45.5918;display:inline;stroke-width:0.264583"
     x="61.318916"
     y="62.113438"
     id="text47"
     transform="translate(79.081127,-15.506334)"><tspan
       x="61.318916"
       y="62.113438"
       id="tspan83">Analyze the data &amp;
</tspan><tspan
       x="61.318916"
       y="66.346768"
       id="tspan84">Data preservation</tspan></text><path
     fill="currentColor"
     d="m 142.69922,36.006895 c 2.97212,0 5.38093,-2.408807 5.38093,-5.38093 0,-2.972124 -2.40881,-5.380932 -5.38093,-5.380932 -2.97212,0 -5.38093,2.408808 -5.38093,5.380932 0,2.972123 2.40881,5.38093 5.38093,5.38093 z m -1.34523,-7.398779 h 2.69046 c 0.37204,0 0.67262,0.300574 0.67262,0.672616 v 2.690466 c 0,0.37204 -0.30058,0.672616 -0.67262,0.672616 h -2.69046 c -0.37204,0 -0.67262,-0.300576 -0.67262,-0.672616 v -2.690466 c 0,-0.372042 0.30058,-0.672616 0.67262,-0.672616 z"
     id="path1-1"
     style="display:inline;fill:#0044aa;fill-opacity:1;stroke-width:0.0210192" /><path
     style="display:inline;fill:#0044aa;fill-opacity:1;stroke:#0044aa;stroke-width:0.805296;stroke-linecap:butt;stroke-linejoin:miter;stroke-dasharray:none;stroke-opacity:1"
     d="M 142.69922,34.937899 V 50.965744"
     id="path54" /></g><g
   id="layer3"
   style="display:inline"
   data-step="2"><g
     id="g21"
     transform="translate(38.014425,-13.988539)"
     style="display:inline"><g
       id="g19"
       transform="translate(23.473939)"><path
         id="rect2"
         style="fill:#b3d2ff;fill-opacity:1;stroke-width:1.61999;stroke-linecap:square;paint-order:fill markers stroke"
         d="m 29.82867,15.201139 v 0.0062 h -42.666024 l 0.04677,26.709999 h 42.619252 v 0.0067 l 0.0031,-0.0067 h 0.03462 v -0.0708 l 6.44974,-13.28394 -6.449736,-13.283944 v -0.07131 h -0.03462 z" /><path
         id="path2"
         style="fill:#ffffff;stroke-width:1.61999;stroke-linecap:square;paint-order:fill markers stroke"
         d="m 31.945337,15.201139 v 0.0062 h -2.078943 v 0.07131 l 6.449736,13.283944 -6.449736,13.283943 v 0.0708 h 2.078943 v 0.0067 l 0.0031,-0.0067 h 0.03462 v -0.0708 L 38.432796,28.562598 31.983061,15.278654 v -0.07131 h -0.03462 z" /></g><text
       xml:space="preserve"
       style="font-size:8.46667px;line-height:1.25;font-family:Arimo;-inkscape-font-specification:'Arimo, Normal';font-variant-ligatures:none;letter-spacing:0px;word-spacing:0px;stroke-width:0.264583"
       x="18.494961"
       y="30.751602"
       id="text20"><tspan
         id="tspan20"
         style="font-weight:bold;stroke-width:0.264583"
         x="18.494961"
         y="30.751602">Planning</tspan></text></g><circle
     style="display:inline;fill:#0044aa;fill-opacity:1;stroke:none;stroke-width:1.95333;stroke-linecap:square;stroke-linejoin:miter;stroke-dasharray:none;paint-order:fill markers stroke"
     id="circle42"
     cx="85.989586"
     cy="30.536697"
     r="5.2916665" /><circle
     style="display:inline;fill:#b3d2ff;fill-opacity:1;stroke:none;stroke-width:1.465;stroke-linecap:square;stroke-linejoin:miter;stroke-dasharray:none;paint-order:fill markers stroke"
     id="circle43"
     cx="85.989586"
     cy="30.536697"
     r="3.96875" /><path
     fill="currentColor"
     d="m 84.876187,28.310114 c -0.30706,0 -0.556709,0.249649 -0.556709,0.55671 v 3.618614 c 0,0.100033 0.05393,0.193107 0.140917,0.24182 0.08699,0.04872 0.193982,0.04784 0.280092,-0.0036 l 1.249124,-0.748949 1.248244,0.748949 c 0.0861,0.05133 0.193107,0.05307 0.280097,0.0036 0.087,-0.04958 0.14178,-0.141787 0.14178,-0.24182 v -3.618614 c 0,-0.307061 -0.24965,-0.55671 -0.556707,-0.55671 z"
     id="path43"
     style="display:inline;fill:#0044aa;fill-opacity:1;stroke-width:0.00869854" /><text
     xml:space="preserve"
     style="font-size:6.35px;line-height:1.25;font-family:Arimo;-inkscape-font-specification:'Arimo, Normal';font-variant-ligatures:none;letter-spacing:0px;word-spacing:0px;display:inline;fill:#0044aa;fill-opacity:1;stroke-width:0.264583"
     x="83.778633"
     y="40.831188"
     id="text43"><tspan
       id="tspan43"
       style="font-style:normal;font-variant:normal;font-weight:bold;font-stretch:normal;font-size:6.35px;font-family:Arimo;-inkscape-font-specification:'Arimo Bold';text-align:end;text-anchor:end;fill:#0044aa;fill-opacity:1;stroke-width:0.264583"
       x="83.778633"
       y="40.831188">Design</tspan></text><text
     xml:space="preserve"
     style="font-size:4.23333px;line-height:1;font-family:Arimo;-inkscape-font-specification:'Arimo, Normal';font-variant-ligatures:none;text-align:end;letter-spacing:0px;word-spacing:0px;text-anchor:end;white-space:pre;inline-size:45.5918;display:inline;stroke-width:0.264583"
     x="61.318916"
     y="62.113438"
     id="text44"
     transform="translate(22.460258,-15.506334)"><tspan
       x="61.318916"
       y="62.113438"
       id="tspan85">Write up the study<tspan
   y="62.113438"
   id="tspan86"> </tspan></tspan><tspan
       x="61.318916"
       y="66.346768"
       id="tspan87">design and<tspan
   y="66.346768"
   id="tspan88"> </tspan></tspan><tspan
       x="61.318916"
       y="70.580094"
       id="tspan89">implementation of<tspan
   y="70.580094"
   id="tspan90"> </tspan></tspan><tspan
       x="61.318916"
       y="74.813424"
       id="tspan91">analysis tools</tspan></text><path
     style="display:inline;fill:#0044aa;fill-opacity:1;stroke:#0044aa;stroke-width:0.998238;stroke-linecap:butt;stroke-linejoin:miter;stroke-dasharray:none;stroke-opacity:1"
     d="M 85.989601,34.937899 V 59.565843"
     id="path44" /></g><g
   id="g24"
   style="display:inline"
   data-step="1"><g
     id="g23"
     transform="translate(-6.9647595,-13.988539)"><g
       id="g22"
       transform="translate(23.473939)"><path
         id="path21"
         style="fill:#b3d2ff;fill-opacity:1;stroke-width:1.61999;stroke-linecap:square;paint-order:fill markers stroke"
         d="m 29.82867,15.201139 v 0.0062 h -42.666024 l 0.04677,26.709999 h 42.619252 v 0.0067 l 0.0031,-0.0067 h 0.03462 v -0.0708 l 6.44974,-13.28394 -6.449736,-13.283944 v -0.07131 h -0.03462 z" /><path
         id="path22"
         style="fill:#ffffff;stroke-width:1.61999;stroke-linecap:square;paint-order:fill markers stroke"
         d="m 31.945337,15.201139 v 0.0062 h -2.078943 v 0.07131 l 6.449736,13.283944 -6.449736,13.283943 v 0.0708 h 2.078943 v 0.0067 l 0.0031,-0.0067 h 0.03462 v -0.0708 L 38.432796,28.562598 31.983061,15.278654 v -0.07131 h -0.03462 z" /></g><text
       xml:space="preserve"
       style="font-size:8.46667px;line-height:1.25;font-family:Arimo;-inkscape-font-specification:'Arimo, Normal';font-variant-ligatures:none;letter-spacing:0px;word-spacing:0px;stroke-width:0.264583"
       x="14.261627"
       y="30.751602"
       id="text22"><tspan
         id="tspan22"
         style="font-weight:bold;stroke-width:0.264583"
         x="14.261627"
         y="30.751602">Inception</tspan></text></g><g
     id="g34"
     transform="translate(-5.291667,-6.879167)"
     style="display:inline"><circle
       style="display:inline;opacity:1;fill:#0044aa;fill-opacity:1;stroke:none;stroke-width:1.95333;stroke-linecap:square;stroke-linejoin:miter;stroke-dasharray:none;paint-order:fill markers stroke"
       id="circle34"
       cx="46.831249"
       cy="37.415871"
       r="5.2916665" /><circle
       style="display:inline;opacity:1;fill:#b3d2ff;fill-opacity:1;stroke:none;stroke-width:1.465;stroke-linecap:square;stroke-linejoin:miter;stroke-dasharray:none;paint-order:fill markers stroke"
       id="path34"
       cx="46.831249"
       cy="37.415871"
       r="3.96875" /></g><path
     fill="currentColor"
     d="m 40.42616,28.310114 c -0.307061,0 -0.55671,0.249649 -0.55671,0.55671 v 3.618614 c 0,0.100033 0.05393,0.193107 0.140917,0.24182 0.08699,0.04872 0.193978,0.04784 0.280095,-0.0036 l 1.249117,-0.748949 1.248248,0.748949 c 0.08612,0.05133 0.193108,0.05307 0.280095,0.0036 0.08699,-0.04958 0.141787,-0.141787 0.141787,-0.24182 v -3.618614 c 0,-0.307061 -0.24965,-0.55671 -0.55671,-0.55671 z"
     id="path1-7"
     style="display:inline;fill:#0044aa;fill-opacity:1;stroke-width:0.00869854" /><text
     xml:space="preserve"
     style="font-size:6.35px;line-height:1.25;font-family:Arimo;-inkscape-font-specification:'Arimo, Normal';font-variant-ligatures:none;letter-spacing:0px;word-spacing:0px;display:inline;fill:#0044aa;fill-opacity:1;stroke-width:0.264583"
     x="39.328594"
     y="40.831188"
     id="text35"><tspan
       id="tspan35"
       style="font-style:normal;font-variant:normal;font-weight:bold;font-stretch:normal;font-size:6.35px;font-family:Arimo;-inkscape-font-specification:'Arimo Bold';text-align:end;text-anchor:end;fill:#0044aa;fill-opacity:1;stroke-width:0.264583"
       x="39.328594"
       y="40.831188">Hypothesis</tspan></text><text
     xml:space="preserve"
     style="font-size:4.23333px;line-height:1;font-family:Arimo;-inkscape-font-specification:'Arimo, Normal';font-variant-ligatures:none;text-align:end;letter-spacing:0px;word-spacing:0px;text-anchor:end;white-space:pre;inline-size:45.5918;display:inline;stroke-width:0.264583"
     x="61.318916"
     y="62.113438"
     id="text36"
     transform="translate(-21.989757,-15.506334)"><tspan
       x="61.318916"
       y="62.113438"
       id="tspan92">Specify the research<tspan
   y="62.113438"
   id="tspan93"> </tspan></tspan><tspan
       x="61.318916"
       y="66.346768"
       id="tspan94">question(s) and the<tspan
   y="66.346768"
   id="tspan95"> </tspan></tspan><tspan
       x="61.318916"
       y="70.580094"
       id="tspan96">approach vision</tspan></text><path
     style="display:inline;fill:#0044aa;fill-opacity:1;stroke:#0044aa;stroke-width:0.998238;stroke-linecap:butt;stroke-linejoin:miter;stroke-dasharray:none;stroke-opacity:1"
     d="m 41.539574,34.937899 v 20.72534"
     id="path42" /></g></svg>
