<?xml version="1.0" encoding="UTF-8" standalone="no"?>
<!-- Created with Inkscape (http://www.inkscape.org/) -->

<svg
   width="238mm"
   height="85mm"
   viewBox="0 0 238 85"
   version="1.1"
   id="svg1"
   xml:space="preserve"
   inkscape:version="1.4.2 (1:1.4.2+202505120738+ebf0e940d0)"
   sodipodi:docname="publication-workflow-actual.svg"
   xmlns:inkscape="http://www.inkscape.org/namespaces/inkscape"
   xmlns:sodipodi="http://sodipodi.sourceforge.net/DTD/sodipodi-0.dtd"
   xmlns="http://www.w3.org/2000/svg"
   xmlns:svg="http://www.w3.org/2000/svg"><sodipodi:namedview
     id="namedview1"
     pagecolor="#ffffff"
     bordercolor="#666666"
     borderopacity="1.0"
     inkscape:showpageshadow="2"
     inkscape:pageopacity="0.0"
     inkscape:pagecheckerboard="0"
     inkscape:deskcolor="#d1d1d1"
     inkscape:document-units="mm"
     inkscape:zoom="1"
     inkscape:cx="216"
     inkscape:cy="-23.5"
     inkscape:window-width="1920"
     inkscape:window-height="1029"
     inkscape:window-x="1080"
     inkscape:window-y="25"
     inkscape:window-maximized="1"
     inkscape:current-layer="g33"
     showgrid="false" />
     <defs id="defs1">
     <style
        type="text/css"
        id="style1"><![CDATA[
      @import url(https://fonts.googleapis.com/css?family=Arimo:400,800,400italic);
     ]]></style>
     </defs>
     <g
     inkscape:label="Layer 1"
     inkscape:groupmode="layer"
     id="layer1"><path
       style="display:inline;fill:#0044aa;stroke:#0044aa;stroke-width:1.61278;stroke-linecap:butt;stroke-linejoin:miter;stroke-dasharray:none;stroke-opacity:1"
       d="M 3.6718256,11.486687 H 192.35108"
       id="path1"
       sodipodi:nodetypes="cc" /></g><g
     inkscape:groupmode="layer"
     id="g33"
     inkscape:label="Publish"
     style="display:inline"><path
       style="fill:none;stroke:#0044aa;stroke-width:1.565;stroke-linecap:butt;stroke-linejoin:miter;stroke-dasharray:none;stroke-opacity:1"
       d="m 191.94718,11.486677 c 0,0 8.65741,-0.666729 11.25282,12.325823 3.01859,15.111018 -7.40834,16.933333 -16.93334,17.991666 -9.525,1.058333 -22.75416,2.116667 -29.63333,0 C 149.75416,39.6875 122.76667,19.05 153.9875,21.695833 c 31.22083,2.645833 64.55833,-6.35 57.67916,12.170833 C 204.7875,52.387499 180.975,59.795833 165.1,59.795833 c -15.875,0 -29.63333,-2.116667 -34.39583,-8.466667 -4.7625,-6.35 -8.55567,-11.314548 -24.87084,-20.6375 -11.112498,-6.35 -41.804164,-11.112499 -59.795831,-3.174999 -17.991666,7.9375 -47.6181518,17.286414 -31.749999,17.991666 23.812499,1.058333 55.562499,24.870832 15.345833,34.395833 -44.03107,10.428412 -0.529167,-43.391667 15.875,-40.745833 16.404166,2.645833 22.3901,16.717878 54.504167,31.749999 24.87083,11.641667 30.70312,7.485606 66.675,2.116667 35.45416,-5.291667 64.02916,-6.879167 62.44166,-23.8125 -1.5875,-16.933333 -3.96875,-30.890104 -10.58333,-30.691666 -5.44565,0.16337 -11.89382,5.701925 -9.06198,-3.571874 1.60263,-5.2483416 17.59479,-3.968751 26.39219,-3.638021"
       id="path63"
       sodipodi:nodetypes="csssssssssssssssssc" /><circle
       style="display:inline;fill:#0044aa;fill-opacity:1;stroke:none;stroke-width:1.95333;stroke-linecap:square;stroke-linejoin:miter;stroke-dasharray:none;paint-order:fill markers stroke"
       id="circle47"
       cx="231.50905"
       cy="11.486688"
       r="5.2916665" /><circle
       style="display:inline;fill:#b3d2ff;fill-opacity:1;stroke:none;stroke-width:1.465;stroke-linecap:square;stroke-linejoin:miter;stroke-dasharray:none;paint-order:fill markers stroke"
       id="circle48"
       cx="231.50905"
       cy="11.486688"
       r="3.96875" /><path
       fill="currentColor"
       d="m 229.15756,8.3495002 c 0.21689,0 0.39215,0.1752377 0.39215,0.3921447 v 0.196073 l 0.84556,-0.210776 c 0.46692,-0.116425 0.95955,-0.06256 1.39093,0.153188 0.5674,0.2843127 1.23526,0.2843127 1.80266,0 l 0.11769,-0.05885 c 0.25247,-0.127449 0.54902,0.05635 0.54902,0.3382337 v 3.4276444 c 0,0.162985 -0.10173,0.310037 -0.2549,0.367638 l -0.42523,0.159313 c -0.56618,0.212005 -1.19605,0.178917 -1.73651,-0.09069 -0.46445,-0.232842 -0.99752,-0.290432 -1.5012,-0.164216 l -0.78797,0.196083 v 1.176446 c 0,0.216916 -0.17525,0.392155 -0.39215,0.392155 -0.21691,0 -0.39216,-0.175239 -0.39216,-0.392155 V 8.7416339 c 0,-0.216907 0.17525,-0.3921447 0.39216,-0.3921447 z m 0.39215,2.2928578 0.78429,-0.170348 v 0.802685 l -0.78429,0.170348 v 0.802685 l 0.59803,-0.149513 c 0.0624,-0.01596 0.12377,-0.02936 0.18626,-0.04042 v -0.783088 l 0.47672,-0.102987 c 0.10173,-0.02202 0.20464,-0.03061 0.30759,-0.02576 v -0.784313 c 0.16666,0.0045 0.33334,0.03185 0.49508,0.07849 l 0.28921,0.08458 v 0.817387 l -0.51101,-0.150737 c -0.0894,-0.02574 -0.18136,-0.04167 -0.27328,-0.04653 v 0.874991 c 0.26715,0.02326 0.53062,0.08211 0.78429,0.176468 v -0.855387 l 0.2782,0.08209 c 0.16545,0.04901 0.33455,0.07849 0.50611,0.09067 v -0.78675 c -0.0955,-0.01011 -0.19117,-0.02824 -0.28431,-0.05511 l -0.5,-0.147047 V 9.7649673 c -0.15923,-0.04653 -0.31615,-0.107836 -0.46811,-0.183821 -0.10052,-0.05026 -0.20712,-0.08582 -0.31618,-0.107848 v 0.8872437 c -0.15924,-0.0045 -0.31862,0.01011 -0.47426,0.04416 l -0.31005,0.06741 V 9.5505693 l -0.78429,0.196071 z m 3.1372,1.821046 c 0.20588,0.01841 0.41544,-0.009 0.61273,-0.08333 l 0.17157,-0.0637 v -0.878672 l -0.0967,0.02202 c -0.22547,0.05273 -0.4571,0.0699 -0.68749,0.05511 z m 0.7843,-1.830859 V 9.7649173 c -0.25611,0.07477 -0.5196,0.111467 -0.7843,0.111467 V 10.72687 c 0.17034,0.01717 0.34314,0.0056 0.51103,-0.03185 l 0.27327,-0.0637 z"
       id="path49"
       style="display:inline;fill:#0044aa;fill-opacity:1;stroke-width:0.0122546" /><g
       id="g62"
       transform="translate(-113.64087,13.215479)"><circle
         style="display:inline;fill:#ff6600;fill-opacity:1;stroke:none;stroke-width:1.95333;stroke-linecap:square;stroke-linejoin:miter;stroke-dasharray:none;paint-order:fill markers stroke"
         id="circle51"
         cx="194.99704"
         cy="11.486688"
         r="5.2916665" /><circle
         style="display:inline;fill:#ffccaa;fill-opacity:1;stroke:none;stroke-width:1.465;stroke-linecap:square;stroke-linejoin:miter;stroke-dasharray:none;paint-order:fill markers stroke"
         id="circle52"
         cx="194.99704"
         cy="11.486688"
         r="3.96875" /><path
         fill="currentColor"
         d="m 194.99556,8.4513209 c 0.0549,0 0.10968,0.01192 0.15975,0.03458 l 2.24612,0.9525747 c 0.26229,0.1108747 0.45781,0.3695847 0.45662,0.6819434 -0.006,1.182671 -0.49238,3.34653 -2.54656,4.330102 -0.1991,0.09538 -0.43039,0.09538 -0.62949,0 -2.05536,-0.983572 -2.5406,-3.147431 -2.54655,-4.330102 -0.001,-0.3123587 0.19432,-0.5710687 0.45661,-0.6819434 l 2.24493,-0.9525747 c 0.0501,-0.02265 0.10372,-0.03458 0.15857,-0.03458 z m 0,0.7963947 v 4.5077414 c 1.64524,-0.796395 2.08755,-2.560865 2.09828,-3.617162 l -2.09828,-0.8893874 v 0 z"
         id="path1-2"
         style="display:inline;fill:#ff6600;fill-opacity:1;stroke-width:0.0119221" /></g><text
       xml:space="preserve"
       style="font-size:6.35px;line-height:1.25;font-family:Arimo;-inkscape-font-specification:'Arimo, Normal';font-variant-ligatures:none;letter-spacing:0px;word-spacing:0px;display:inline;fill:#0044aa;fill-opacity:1;stroke-width:0.264583"
       x="229.82727"
       y="5.3770041"
       id="text58"><tspan
         id="tspan58"
         style="font-style:normal;font-variant:normal;font-weight:bold;font-stretch:normal;font-size:6.35px;font-family:Arimo;-inkscape-font-specification:'Arimo Bold';text-align:end;text-anchor:end;fill:#0044aa;fill-opacity:1;stroke-width:0.264583"
         x="229.82727"
         y="5.3770041"
         sodipodi:role="line">Accept</tspan></text><g
       id="g64"
       transform="translate(-92.047622,60.616728)"><circle
         style="display:inline;fill:#ff6600;fill-opacity:1;stroke:none;stroke-width:1.95333;stroke-linecap:square;stroke-linejoin:miter;stroke-dasharray:none;paint-order:fill markers stroke"
         id="circle63"
         cx="194.99704"
         cy="11.486688"
         r="5.2916665" /><circle
         style="display:inline;fill:#ffccaa;fill-opacity:1;stroke:none;stroke-width:1.465;stroke-linecap:square;stroke-linejoin:miter;stroke-dasharray:none;paint-order:fill markers stroke"
         id="circle64"
         cx="194.99704"
         cy="11.486688"
         r="3.96875" /><path
         fill="currentColor"
         d="m 194.99556,8.4513209 c 0.0549,0 0.10968,0.01192 0.15975,0.03458 l 2.24612,0.9525747 c 0.26229,0.1108747 0.45781,0.3695847 0.45662,0.6819434 -0.006,1.182671 -0.49238,3.34653 -2.54656,4.330102 -0.1991,0.09538 -0.43039,0.09538 -0.62949,0 -2.05536,-0.983572 -2.5406,-3.147431 -2.54655,-4.330102 -0.001,-0.3123587 0.19432,-0.5710687 0.45661,-0.6819434 l 2.24493,-0.9525747 c 0.0501,-0.02265 0.10372,-0.03458 0.15857,-0.03458 z m 0,0.7963947 v 4.5077414 c 1.64524,-0.796395 2.08755,-2.560865 2.09828,-3.617162 l -2.09828,-0.8893874 v 0 z"
         id="path64"
         style="display:inline;fill:#ff6600;fill-opacity:1;stroke-width:0.0119221" /></g><g
       id="g67"
       transform="translate(30.655339,0.53695525)"><circle
         style="display:inline;fill:#0044aa;fill-opacity:1;stroke:none;stroke-width:1.95333;stroke-linecap:square;stroke-linejoin:miter;stroke-dasharray:none;paint-order:fill markers stroke"
         id="circle66"
         cx="170.06024"
         cy="35.762211"
         r="5.2916665" /><circle
         style="display:inline;fill:#b3d2ff;fill-opacity:1;stroke:none;stroke-width:1.465;stroke-linecap:square;stroke-linejoin:miter;stroke-dasharray:none;paint-order:fill markers stroke"
         id="circle67"
         cx="170.06024"
         cy="35.762211"
         r="3.96875" /><path
         fill="currentColor"
         d="m 167.94678,33.811322 c -0.26926,0 -0.48772,0.218459 -0.48772,0.487722 0,0.153429 0.0721,0.297714 0.19509,0.390178 l 2.11346,1.585097 c 0.17375,0.130058 0.41152,0.130058 0.58527,0 l 2.11346,-1.585097 c 0.12295,-0.09246 0.19509,-0.236749 0.19509,-0.390178 0,-0.269263 -0.21846,-0.487722 -0.48773,-0.487722 z m -0.48772,1.341236 v 1.910245 c 0,0.358678 0.29162,0.650296 0.6503,0.650296 h 3.90177 c 0.35868,0 0.6503,-0.291618 0.6503,-0.650296 v -1.910245 l -2.01592,1.511938 c -0.34648,0.260119 -0.82405,0.260119 -1.17053,0 z"
         id="path1-22"
         style="fill:#0044aa;fill-opacity:1;stroke-width:0.0101609" /></g><g
       id="g69"
       transform="translate(-19.880077,22.497371)"
       style="display:inline"><circle
         style="display:inline;fill:#0044aa;fill-opacity:1;stroke:none;stroke-width:1.95333;stroke-linecap:square;stroke-linejoin:miter;stroke-dasharray:none;paint-order:fill markers stroke"
         id="circle68"
         cx="170.06024"
         cy="35.762211"
         r="5.2916665" /><circle
         style="display:inline;fill:#b3d2ff;fill-opacity:1;stroke:none;stroke-width:1.465;stroke-linecap:square;stroke-linejoin:miter;stroke-dasharray:none;paint-order:fill markers stroke"
         id="circle69"
         cx="170.06024"
         cy="35.762211"
         r="3.96875" /><path
         fill="currentColor"
         d="m 167.94678,33.811322 c -0.26926,0 -0.48772,0.218459 -0.48772,0.487722 0,0.153429 0.0721,0.297714 0.19509,0.390178 l 2.11346,1.585097 c 0.17375,0.130058 0.41152,0.130058 0.58527,0 l 2.11346,-1.585097 c 0.12295,-0.09246 0.19509,-0.236749 0.19509,-0.390178 0,-0.269263 -0.21846,-0.487722 -0.48773,-0.487722 z m -0.48772,1.341236 v 1.910245 c 0,0.358678 0.29162,0.650296 0.6503,0.650296 h 3.90177 c 0.35868,0 0.6503,-0.291618 0.6503,-0.650296 v -1.910245 l -2.01592,1.511938 c -0.34648,0.260119 -0.82405,0.260119 -1.17053,0 z"
         id="path69"
         style="fill:#0044aa;fill-opacity:1;stroke-width:0.0101609" /></g><g
       id="g71"
       transform="translate(-25.929167,5.0270833)"><circle
         style="display:inline;fill:#0044aa;fill-opacity:1;stroke:none;stroke-width:1.95333;stroke-linecap:square;stroke-linejoin:miter;stroke-dasharray:none;paint-order:fill markers stroke"
         id="circle70"
         cx="189.86766"
         cy="53.761665"
         r="5.2916665" /><circle
         style="display:inline;fill:#b3d2ff;fill-opacity:1;stroke:none;stroke-width:1.465;stroke-linecap:square;stroke-linejoin:miter;stroke-dasharray:none;paint-order:fill markers stroke"
         id="circle71"
         cx="189.86766"
         cy="53.761665"
         r="3.96875" /><path
         fill="currentColor"
         d="m 188.62195,51.269439 c 0.55366,-0.95871 1.9378,-0.95871 2.49145,0 l 0.447,0.77416 0.33196,-0.19174 c 0.10066,-0.0587 0.22649,-0.0503 0.31877,0.0204 0.0923,0.0707 0.13302,0.19055 0.10306,0.30319 l -0.28162,1.0474 c -0.0408,0.15339 -0.19893,0.24447 -0.35233,0.20372 l -1.04739,-0.28042 c -0.11265,-0.03 -0.19534,-0.12463 -0.21092,-0.23968 -0.0156,-0.11504 0.0408,-0.22889 0.14141,-0.28641 l 0.33196,-0.19174 -0.447,-0.77416 c -0.25886,-0.447 -0.90359,-0.447 -1.16244,0 l -0.0635,0.10905 c -0.10545,0.18335 -0.34034,0.24567 -0.52369,0.14021 -0.18336,-0.10546 -0.24567,-0.34034 -0.14021,-0.52489 z m 3.56401,2.62567 c 0.18336,-0.10545 0.41824,-0.0431 0.5237,0.14022 l 0.0635,0.10905 c 0.55366,0.95871 -0.13781,2.1571 -1.24512,2.1571 h -0.894 v 0.38349 c 0,0.11624 -0.0695,0.2217 -0.17736,0.26604 -0.10786,0.0443 -0.23129,0.0204 -0.31398,-0.0623 l -0.76697,-0.76697 c -0.11265,-0.11265 -0.11265,-0.2948 0,-0.40625 l 0.76697,-0.76697 c 0.0827,-0.0827 0.20612,-0.10666 0.31398,-0.0623 0.10785,0.0443 0.17736,0.1498 0.17736,0.26604 v 0.38349 h 0.894 c 0.5165,0 0.84007,-0.55965 0.58122,-1.00665 l -0.0635,-0.10905 c -0.10546,-0.18335 -0.0431,-0.41824 0.14021,-0.5237 z m -4.77798,-0.52369 -0.33195,-0.19174 c -0.10067,-0.0587 -0.15699,-0.17137 -0.14141,-0.28642 0.0156,-0.11504 0.0983,-0.20972 0.21091,-0.23968 l 1.0474,-0.28162 c 0.15339,-0.0407 0.31158,0.0503 0.35232,0.20373 l 0.28043,1.04739 c 0.03,0.11265 -0.0108,0.23129 -0.10306,0.30319 -0.0923,0.0719 -0.21811,0.0791 -0.31878,0.0204 l -0.33195,-0.19175 -0.447,0.77416 c -0.25885,0.447 0.0647,1.00665 0.58122,1.00665 h 0.12703 c 0.21211,0 0.38348,0.17137 0.38348,0.38348 0,0.21212 -0.17137,0.38349 -0.38348,0.38349 h -0.12703 c -1.10611,0 -1.79759,-1.19839 -1.24393,-2.1571 z"
         id="path1-09"
         style="fill:#0044aa;fill-opacity:1;stroke-width:0.0119839" /></g><g
       id="g3"><circle
         style="display:inline;fill:#ffd5d5;fill-opacity:1;stroke:none;stroke-width:1.465;stroke-linecap:square;stroke-linejoin:miter;stroke-dasharray:none;paint-order:fill markers stroke"
         id="circle65"
         cx="139.78317"
         cy="28.684092"
         r="3.96875" /><path
         fill="currentColor"
         d="m 139.78317,33.976579 c 2.92327,0 5.29249,-2.369216 5.29249,-5.29249 0,-2.923272 -2.36922,-5.292488 -5.29249,-5.292488 -2.92327,0 -5.29248,2.369216 -5.29248,5.292488 0,2.923274 2.36921,5.29249 5.29248,5.29249 z m -1.83996,-7.132457 c 0.19433,-0.194332 0.50857,-0.194332 0.70084,0 l 1.13706,1.137059 1.13705,-1.137059 c 0.19434,-0.194332 0.50858,-0.194332 0.70084,0 0.19226,0.194334 0.19434,0.508577 0,0.700842 l -1.13705,1.137059 1.13705,1.137058 c 0.19434,0.194332 0.19434,0.508575 0,0.700842 -0.19433,0.192266 -0.50858,0.194332 -0.70084,0 l -1.13705,-1.13706 -1.13706,1.13706 c -0.19434,0.194332 -0.50858,0.194332 -0.70084,0 -0.19227,-0.194335 -0.19433,-0.508576 0,-0.700842 l 1.13706,-1.137058 -1.13706,-1.137059 c -0.19433,-0.194334 -0.19433,-0.508575 0,-0.700842 z"
         id="path1-71"
         style="display:inline;fill:#ff0000;stroke-width:0.0206737" /></g><g
       id="g2"><circle
         style="display:inline;fill:#ffd5d5;fill-opacity:1;stroke:none;stroke-width:1.465;stroke-linecap:square;stroke-linejoin:miter;stroke-dasharray:none;paint-order:fill markers stroke"
         id="circle72"
         cx="125.23109"
         cy="44.823673"
         r="3.96875" /><path
         fill="currentColor"
         d="m 125.23108,50.116162 c 2.92327,0 5.29249,-2.369216 5.29249,-5.29249 0,-2.923272 -2.36922,-5.292488 -5.29249,-5.292488 -2.92327,0 -5.29248,2.369216 -5.29248,5.292488 0,2.923274 2.36921,5.29249 5.29248,5.29249 z m -1.83996,-7.132457 c 0.19433,-0.194332 0.50857,-0.194332 0.70084,0 l 1.13706,1.137059 1.13705,-1.137059 c 0.19434,-0.194332 0.50858,-0.194332 0.70084,0 0.19226,0.194334 0.19434,0.508577 0,0.700842 l -1.13705,1.137059 1.13705,1.137058 c 0.19434,0.194332 0.19434,0.508575 0,0.700842 -0.19433,0.192266 -0.50858,0.194332 -0.70084,0 l -1.13705,-1.13706 -1.13706,1.13706 c -0.19434,0.194332 -0.50858,0.194332 -0.70084,0 -0.19227,-0.194335 -0.19433,-0.508576 0,-0.700842 l 1.13706,-1.137058 -1.13706,-1.137059 c -0.19433,-0.194334 -0.19433,-0.508575 0,-0.700842 z"
         id="path72"
         style="display:inline;fill:#ff0000;stroke-width:0.0206737" /></g><g
       id="g74"
       transform="translate(-65.652993,-5.5484622)"
       style="display:inline"><circle
         style="display:inline;fill:#0044aa;fill-opacity:1;stroke:none;stroke-width:1.95333;stroke-linecap:square;stroke-linejoin:miter;stroke-dasharray:none;paint-order:fill markers stroke"
         id="circle73"
         cx="170.06024"
         cy="35.762211"
         r="5.2916665" /><circle
         style="display:inline;fill:#b3d2ff;fill-opacity:1;stroke:none;stroke-width:1.465;stroke-linecap:square;stroke-linejoin:miter;stroke-dasharray:none;paint-order:fill markers stroke"
         id="circle74"
         cx="170.06024"
         cy="35.762211"
         r="3.96875" /><path
         fill="currentColor"
         d="m 167.94678,33.811322 c -0.26926,0 -0.48772,0.218459 -0.48772,0.487722 0,0.153429 0.0721,0.297714 0.19509,0.390178 l 2.11346,1.585097 c 0.17375,0.130058 0.41152,0.130058 0.58527,0 l 2.11346,-1.585097 c 0.12295,-0.09246 0.19509,-0.236749 0.19509,-0.390178 0,-0.269263 -0.21846,-0.487722 -0.48773,-0.487722 z m -0.48772,1.341236 v 1.910245 c 0,0.358678 0.29162,0.650296 0.6503,0.650296 h 3.90177 c 0.35868,0 0.6503,-0.291618 0.6503,-0.650296 v -1.910245 l -2.01592,1.511938 c -0.34648,0.260119 -0.82405,0.260119 -1.17053,0 z"
         id="path74"
         style="fill:#0044aa;fill-opacity:1;stroke-width:0.0101609" /></g><g
       id="g76"
       transform="translate(-74.877083,-17.4625)"><circle
         style="display:inline;fill:#0044aa;fill-opacity:1;stroke:none;stroke-width:1.95333;stroke-linecap:square;stroke-linejoin:miter;stroke-dasharray:none;paint-order:fill markers stroke"
         id="circle75"
         cx="189.86766"
         cy="53.761665"
         r="5.2916665" /><circle
         style="display:inline;fill:#b3d2ff;fill-opacity:1;stroke:none;stroke-width:1.465;stroke-linecap:square;stroke-linejoin:miter;stroke-dasharray:none;paint-order:fill markers stroke"
         id="circle76"
         cx="189.86766"
         cy="53.761665"
         r="3.96875" /><path
         fill="currentColor"
         d="m 188.62195,51.269439 c 0.55366,-0.95871 1.9378,-0.95871 2.49145,0 l 0.447,0.77416 0.33196,-0.19174 c 0.10066,-0.0587 0.22649,-0.0503 0.31877,0.0204 0.0923,0.0707 0.13302,0.19055 0.10306,0.30319 l -0.28162,1.0474 c -0.0408,0.15339 -0.19893,0.24447 -0.35233,0.20372 l -1.04739,-0.28042 c -0.11265,-0.03 -0.19534,-0.12463 -0.21092,-0.23968 -0.0156,-0.11504 0.0408,-0.22889 0.14141,-0.28641 l 0.33196,-0.19174 -0.447,-0.77416 c -0.25886,-0.447 -0.90359,-0.447 -1.16244,0 l -0.0635,0.10905 c -0.10545,0.18335 -0.34034,0.24567 -0.52369,0.14021 -0.18336,-0.10546 -0.24567,-0.34034 -0.14021,-0.52489 z m 3.56401,2.62567 c 0.18336,-0.10545 0.41824,-0.0431 0.5237,0.14022 l 0.0635,0.10905 c 0.55366,0.95871 -0.13781,2.1571 -1.24512,2.1571 h -0.894 v 0.38349 c 0,0.11624 -0.0695,0.2217 -0.17736,0.26604 -0.10786,0.0443 -0.23129,0.0204 -0.31398,-0.0623 l -0.76697,-0.76697 c -0.11265,-0.11265 -0.11265,-0.2948 0,-0.40625 l 0.76697,-0.76697 c 0.0827,-0.0827 0.20612,-0.10666 0.31398,-0.0623 0.10785,0.0443 0.17736,0.1498 0.17736,0.26604 v 0.38349 h 0.894 c 0.5165,0 0.84007,-0.55965 0.58122,-1.00665 l -0.0635,-0.10905 c -0.10546,-0.18335 -0.0431,-0.41824 0.14021,-0.5237 z m -4.77798,-0.52369 -0.33195,-0.19174 c -0.10067,-0.0587 -0.15699,-0.17137 -0.14141,-0.28642 0.0156,-0.11504 0.0983,-0.20972 0.21091,-0.23968 l 1.0474,-0.28162 c 0.15339,-0.0407 0.31158,0.0503 0.35232,0.20373 l 0.28043,1.04739 c 0.03,0.11265 -0.0108,0.23129 -0.10306,0.30319 -0.0923,0.0719 -0.21811,0.0791 -0.31878,0.0204 l -0.33195,-0.19175 -0.447,0.77416 c -0.25885,0.447 0.0647,1.00665 0.58122,1.00665 h 0.12703 c 0.21211,0 0.38348,0.17137 0.38348,0.38348 0,0.21212 -0.17137,0.38349 -0.38348,0.38349 h -0.12703 c -1.10611,0 -1.79759,-1.19839 -1.24393,-2.1571 z"
         id="path76"
         style="fill:#0044aa;fill-opacity:1;stroke-width:0.0119839" /></g><g
       id="g1"><circle
         style="display:inline;fill:#ffd5d5;fill-opacity:1;stroke:none;stroke-width:1.465;stroke-linecap:square;stroke-linejoin:miter;stroke-dasharray:none;paint-order:fill markers stroke"
         id="circle77"
         cx="36.331081"
         cy="30.271591"
         r="3.96875" /><path
         fill="currentColor"
         d="m 36.33108,35.564079 c 2.92327,0 5.29249,-2.369216 5.29249,-5.29249 0,-2.923272 -2.36922,-5.292488 -5.29249,-5.292488 -2.92327,0 -5.29248,2.369216 -5.29248,5.292488 0,2.923274 2.36921,5.29249 5.29248,5.29249 z m -1.83996,-7.132457 c 0.19433,-0.194332 0.50857,-0.194332 0.70084,0 l 1.13706,1.137059 1.13705,-1.137059 c 0.19434,-0.194332 0.50858,-0.194332 0.70084,0 0.19226,0.194334 0.19434,0.508577 0,0.700842 l -1.13705,1.137059 1.13705,1.137058 c 0.19434,0.194332 0.19434,0.508575 0,0.700842 -0.19433,0.192266 -0.50858,0.194332 -0.70084,0 l -1.13705,-1.13706 -1.13706,1.13706 c -0.19434,0.194332 -0.50858,0.194332 -0.70084,0 -0.19227,-0.194335 -0.19433,-0.508576 0,-0.700842 l 1.13706,-1.137058 -1.13706,-1.137059 c -0.19433,-0.194334 -0.19433,-0.508575 0,-0.700842 z"
         id="path77"
         style="display:inline;fill:#ff0000;stroke-width:0.0206737" /></g><g
       id="g83"
       transform="translate(-0.37417734,-1.4967093)"><circle
         style="display:inline;fill:#338000;fill-opacity:1;stroke:none;stroke-width:1.95333;stroke-linecap:square;stroke-linejoin:miter;stroke-dasharray:none;paint-order:fill markers stroke"
         id="circle78"
         cx="11.803081"
         cy="43.442917"
         r="5.2916665" /><circle
         style="display:inline;fill:#ccffaa;fill-opacity:1;stroke:none;stroke-width:1.465;stroke-linecap:square;stroke-linejoin:miter;stroke-dasharray:none;paint-order:fill markers stroke"
         id="circle79"
         cx="11.803081"
         cy="43.442917"
         r="3.96875" /><path
         fill="currentColor"
         d="m 10.55737,40.950689 c 0.55366,-0.95871 1.9378,-0.95871 2.49145,0 l 0.447,0.77416 0.33196,-0.19174 c 0.10066,-0.0587 0.22649,-0.0503 0.31877,0.0204 0.0923,0.0707 0.13302,0.19055 0.10306,0.30319 l -0.28162,1.0474 c -0.0408,0.15339 -0.19893,0.24447 -0.35233,0.20372 l -1.04739,-0.28042 c -0.11265,-0.03 -0.19534,-0.12463 -0.21092,-0.23968 -0.0156,-0.11504 0.0408,-0.22889 0.14141,-0.28641 l 0.33196,-0.19174 -0.447,-0.77416 c -0.25886,-0.447 -0.90359,-0.447 -1.16244,0 l -0.0635,0.10905 c -0.10545,0.18335 -0.34034,0.24567 -0.52369,0.14021 -0.18336,-0.10546 -0.24567,-0.34034 -0.14021,-0.52489 z m 3.56401,2.62567 c 0.18336,-0.10545 0.41824,-0.0431 0.5237,0.14022 l 0.0635,0.10905 c 0.55366,0.95871 -0.13781,2.1571 -1.24512,2.1571 h -0.894 v 0.38349 c 0,0.11624 -0.0695,0.2217 -0.17736,0.26604 -0.10786,0.0443 -0.23129,0.0204 -0.31398,-0.0623 l -0.76697,-0.76697 c -0.11265,-0.11265 -0.11265,-0.2948 0,-0.40625 l 0.76697,-0.76697 c 0.0827,-0.0827 0.20612,-0.10666 0.31398,-0.0623 0.10785,0.0443 0.17736,0.1498 0.17736,0.26604 v 0.38349 h 0.894 c 0.5165,0 0.84007,-0.55965 0.58122,-1.00665 l -0.0635,-0.10905 c -0.10546,-0.18335 -0.0431,-0.41824 0.14021,-0.5237 z M 9.3434,43.052669 9.01145,42.860929 c -0.10067,-0.0587 -0.15699,-0.17137 -0.14141,-0.28642 0.0156,-0.11504 0.0983,-0.20972 0.21091,-0.23968 l 1.0474,-0.28162 c 0.15339,-0.0407 0.31158,0.0503 0.35232,0.20373 l 0.28043,1.04739 c 0.03,0.11265 -0.0108,0.23129 -0.10306,0.30319 -0.0923,0.0719 -0.21811,0.0791 -0.31878,0.0204 l -0.33195,-0.19175 -0.447,0.77416 c -0.25885,0.447 0.0647,1.00665 0.58122,1.00665 h 0.12703 c 0.21211,0 0.38348,0.17137 0.38348,0.38348 0,0.21212 -0.17137,0.38349 -0.38348,0.38349 h -0.12703 c -1.10611,0 -1.79759,-1.19839 -1.24393,-2.1571 z"
         id="path79"
         style="fill:#338000;fill-opacity:1;stroke-width:0.0119839" /></g><g
       id="g82"
       transform="translate(-122.40467,26.613322)"
       style="display:inline"><circle
         style="display:inline;fill:#0044aa;fill-opacity:1;stroke:none;stroke-width:1.95333;stroke-linecap:square;stroke-linejoin:miter;stroke-dasharray:none;paint-order:fill markers stroke"
         id="circle81"
         cx="170.06024"
         cy="35.762211"
         r="5.2916665" /><circle
         style="display:inline;fill:#b3d2ff;fill-opacity:1;stroke:none;stroke-width:1.465;stroke-linecap:square;stroke-linejoin:miter;stroke-dasharray:none;paint-order:fill markers stroke"
         id="circle82"
         cx="170.06024"
         cy="35.762211"
         r="3.96875" /><path
         fill="currentColor"
         d="m 167.94678,33.811322 c -0.26926,0 -0.48772,0.218459 -0.48772,0.487722 0,0.153429 0.0721,0.297714 0.19509,0.390178 l 2.11346,1.585097 c 0.17375,0.130058 0.41152,0.130058 0.58527,0 l 2.11346,-1.585097 c 0.12295,-0.09246 0.19509,-0.236749 0.19509,-0.390178 0,-0.269263 -0.21846,-0.487722 -0.48773,-0.487722 z m -0.48772,1.341236 v 1.910245 c 0,0.358678 0.29162,0.650296 0.6503,0.650296 h 3.90177 c 0.35868,0 0.6503,-0.291618 0.6503,-0.650296 v -1.910245 l -2.01592,1.511938 c -0.34648,0.260119 -0.82405,0.260119 -1.17053,0 z"
         id="path82"
         style="fill:#0044aa;fill-opacity:1;stroke-width:0.0101609" /></g><g
       id="g84"
       transform="translate(145.92916,30.308364)"><circle
         style="display:inline;fill:#338000;fill-opacity:1;stroke:none;stroke-width:1.95333;stroke-linecap:square;stroke-linejoin:miter;stroke-dasharray:none;paint-order:fill markers stroke"
         id="circle83"
         cx="11.803081"
         cy="43.442917"
         r="5.2916665" /><circle
         style="display:inline;fill:#ccffaa;fill-opacity:1;stroke:none;stroke-width:1.465;stroke-linecap:square;stroke-linejoin:miter;stroke-dasharray:none;paint-order:fill markers stroke"
         id="circle84"
         cx="11.803081"
         cy="43.442917"
         r="3.96875" /><path
         fill="currentColor"
         d="m 10.55737,40.950689 c 0.55366,-0.95871 1.9378,-0.95871 2.49145,0 l 0.447,0.77416 0.33196,-0.19174 c 0.10066,-0.0587 0.22649,-0.0503 0.31877,0.0204 0.0923,0.0707 0.13302,0.19055 0.10306,0.30319 l -0.28162,1.0474 c -0.0408,0.15339 -0.19893,0.24447 -0.35233,0.20372 l -1.04739,-0.28042 c -0.11265,-0.03 -0.19534,-0.12463 -0.21092,-0.23968 -0.0156,-0.11504 0.0408,-0.22889 0.14141,-0.28641 l 0.33196,-0.19174 -0.447,-0.77416 c -0.25886,-0.447 -0.90359,-0.447 -1.16244,0 l -0.0635,0.10905 c -0.10545,0.18335 -0.34034,0.24567 -0.52369,0.14021 -0.18336,-0.10546 -0.24567,-0.34034 -0.14021,-0.52489 z m 3.56401,2.62567 c 0.18336,-0.10545 0.41824,-0.0431 0.5237,0.14022 l 0.0635,0.10905 c 0.55366,0.95871 -0.13781,2.1571 -1.24512,2.1571 h -0.894 v 0.38349 c 0,0.11624 -0.0695,0.2217 -0.17736,0.26604 -0.10786,0.0443 -0.23129,0.0204 -0.31398,-0.0623 l -0.76697,-0.76697 c -0.11265,-0.11265 -0.11265,-0.2948 0,-0.40625 l 0.76697,-0.76697 c 0.0827,-0.0827 0.20612,-0.10666 0.31398,-0.0623 0.10785,0.0443 0.17736,0.1498 0.17736,0.26604 v 0.38349 h 0.894 c 0.5165,0 0.84007,-0.55965 0.58122,-1.00665 l -0.0635,-0.10905 c -0.10546,-0.18335 -0.0431,-0.41824 0.14021,-0.5237 z M 9.3434,43.052669 9.01145,42.860929 c -0.10067,-0.0587 -0.15699,-0.17137 -0.14141,-0.28642 0.0156,-0.11504 0.0983,-0.20972 0.21091,-0.23968 l 1.0474,-0.28162 c 0.15339,-0.0407 0.31158,0.0503 0.35232,0.20373 l 0.28043,1.04739 c 0.03,0.11265 -0.0108,0.23129 -0.10306,0.30319 -0.0923,0.0719 -0.21811,0.0791 -0.31878,0.0204 l -0.33195,-0.19175 -0.447,0.77416 c -0.25885,0.447 0.0647,1.00665 0.58122,1.00665 h 0.12703 c 0.21211,0 0.38348,0.17137 0.38348,0.38348 0,0.21212 -0.17137,0.38349 -0.38348,0.38349 h -0.12703 c -1.10611,0 -1.79759,-1.19839 -1.24393,-2.1571 z"
         id="path84"
         style="fill:#338000;fill-opacity:1;stroke-width:0.0119839" /></g><g
       id="g86"
       transform="translate(214.77779,13.844561)"><circle
         style="display:inline;fill:#338000;fill-opacity:1;stroke:none;stroke-width:1.95333;stroke-linecap:square;stroke-linejoin:miter;stroke-dasharray:none;paint-order:fill markers stroke"
         id="circle85"
         cx="11.803081"
         cy="43.442917"
         r="5.2916665" /><circle
         style="display:inline;fill:#ccffaa;fill-opacity:1;stroke:none;stroke-width:1.465;stroke-linecap:square;stroke-linejoin:miter;stroke-dasharray:none;paint-order:fill markers stroke"
         id="circle86"
         cx="11.803081"
         cy="43.442917"
         r="3.96875" /><path
         fill="currentColor"
         d="m 10.55737,40.950689 c 0.55366,-0.95871 1.9378,-0.95871 2.49145,0 l 0.447,0.77416 0.33196,-0.19174 c 0.10066,-0.0587 0.22649,-0.0503 0.31877,0.0204 0.0923,0.0707 0.13302,0.19055 0.10306,0.30319 l -0.28162,1.0474 c -0.0408,0.15339 -0.19893,0.24447 -0.35233,0.20372 l -1.04739,-0.28042 c -0.11265,-0.03 -0.19534,-0.12463 -0.21092,-0.23968 -0.0156,-0.11504 0.0408,-0.22889 0.14141,-0.28641 l 0.33196,-0.19174 -0.447,-0.77416 c -0.25886,-0.447 -0.90359,-0.447 -1.16244,0 l -0.0635,0.10905 c -0.10545,0.18335 -0.34034,0.24567 -0.52369,0.14021 -0.18336,-0.10546 -0.24567,-0.34034 -0.14021,-0.52489 z m 3.56401,2.62567 c 0.18336,-0.10545 0.41824,-0.0431 0.5237,0.14022 l 0.0635,0.10905 c 0.55366,0.95871 -0.13781,2.1571 -1.24512,2.1571 h -0.894 v 0.38349 c 0,0.11624 -0.0695,0.2217 -0.17736,0.26604 -0.10786,0.0443 -0.23129,0.0204 -0.31398,-0.0623 l -0.76697,-0.76697 c -0.11265,-0.11265 -0.11265,-0.2948 0,-0.40625 l 0.76697,-0.76697 c 0.0827,-0.0827 0.20612,-0.10666 0.31398,-0.0623 0.10785,0.0443 0.17736,0.1498 0.17736,0.26604 v 0.38349 h 0.894 c 0.5165,0 0.84007,-0.55965 0.58122,-1.00665 l -0.0635,-0.10905 c -0.10546,-0.18335 -0.0431,-0.41824 0.14021,-0.5237 z M 9.3434,43.052669 9.01145,42.860929 c -0.10067,-0.0587 -0.15699,-0.17137 -0.14141,-0.28642 0.0156,-0.11504 0.0983,-0.20972 0.21091,-0.23968 l 1.0474,-0.28162 c 0.15339,-0.0407 0.31158,0.0503 0.35232,0.20373 l 0.28043,1.04739 c 0.03,0.11265 -0.0108,0.23129 -0.10306,0.30319 -0.0923,0.0719 -0.21811,0.0791 -0.31878,0.0204 l -0.33195,-0.19175 -0.447,0.77416 c -0.25885,0.447 0.0647,1.00665 0.58122,1.00665 h 0.12703 c 0.21211,0 0.38348,0.17137 0.38348,0.38348 0,0.21212 -0.17137,0.38349 -0.38348,0.38349 h -0.12703 c -1.10611,0 -1.79759,-1.19839 -1.24393,-2.1571 z"
         id="path86"
         style="fill:#338000;fill-opacity:1;stroke-width:0.0119839" /></g><g
       id="g89"
       transform="translate(20.094645,-40.622552)"><circle
         style="display:inline;fill:#0044aa;fill-opacity:1;stroke:none;stroke-width:1.95333;stroke-linecap:square;stroke-linejoin:miter;stroke-dasharray:none;paint-order:fill markers stroke"
         id="circle88"
         cx="189.86766"
         cy="53.761665"
         r="5.2916665" /><circle
         style="display:inline;fill:#b3d2ff;fill-opacity:1;stroke:none;stroke-width:1.465;stroke-linecap:square;stroke-linejoin:miter;stroke-dasharray:none;paint-order:fill markers stroke"
         id="circle89"
         cx="189.86766"
         cy="53.761665"
         r="3.96875" /><path
         fill="currentColor"
         d="m 188.62195,51.269439 c 0.55366,-0.95871 1.9378,-0.95871 2.49145,0 l 0.447,0.77416 0.33196,-0.19174 c 0.10066,-0.0587 0.22649,-0.0503 0.31877,0.0204 0.0923,0.0707 0.13302,0.19055 0.10306,0.30319 l -0.28162,1.0474 c -0.0408,0.15339 -0.19893,0.24447 -0.35233,0.20372 l -1.04739,-0.28042 c -0.11265,-0.03 -0.19534,-0.12463 -0.21092,-0.23968 -0.0156,-0.11504 0.0408,-0.22889 0.14141,-0.28641 l 0.33196,-0.19174 -0.447,-0.77416 c -0.25886,-0.447 -0.90359,-0.447 -1.16244,0 l -0.0635,0.10905 c -0.10545,0.18335 -0.34034,0.24567 -0.52369,0.14021 -0.18336,-0.10546 -0.24567,-0.34034 -0.14021,-0.52489 z m 3.56401,2.62567 c 0.18336,-0.10545 0.41824,-0.0431 0.5237,0.14022 l 0.0635,0.10905 c 0.55366,0.95871 -0.13781,2.1571 -1.24512,2.1571 h -0.894 v 0.38349 c 0,0.11624 -0.0695,0.2217 -0.17736,0.26604 -0.10786,0.0443 -0.23129,0.0204 -0.31398,-0.0623 l -0.76697,-0.76697 c -0.11265,-0.11265 -0.11265,-0.2948 0,-0.40625 l 0.76697,-0.76697 c 0.0827,-0.0827 0.20612,-0.10666 0.31398,-0.0623 0.10785,0.0443 0.17736,0.1498 0.17736,0.26604 v 0.38349 h 0.894 c 0.5165,0 0.84007,-0.55965 0.58122,-1.00665 l -0.0635,-0.10905 c -0.10546,-0.18335 -0.0431,-0.41824 0.14021,-0.5237 z m -4.77798,-0.52369 -0.33195,-0.19174 c -0.10067,-0.0587 -0.15699,-0.17137 -0.14141,-0.28642 0.0156,-0.11504 0.0983,-0.20972 0.21091,-0.23968 l 1.0474,-0.28162 c 0.15339,-0.0407 0.31158,0.0503 0.35232,0.20373 l 0.28043,1.04739 c 0.03,0.11265 -0.0108,0.23129 -0.10306,0.30319 -0.0923,0.0719 -0.21811,0.0791 -0.31878,0.0204 l -0.33195,-0.19175 -0.447,0.77416 c -0.25885,0.447 0.0647,1.00665 0.58122,1.00665 h 0.12703 c 0.21211,0 0.38348,0.17137 0.38348,0.38348 0,0.21212 -0.17137,0.38349 -0.38348,0.38349 h -0.12703 c -1.10611,0 -1.79759,-1.19839 -1.24393,-2.1571 z"
         id="path89"
         style="fill:#0044aa;fill-opacity:1;stroke-width:0.0119839" /></g><g
       id="g91"
       transform="translate(-23.573169,60.616728)"><circle
         style="display:inline;fill:#ff6600;fill-opacity:1;stroke:none;stroke-width:1.95333;stroke-linecap:square;stroke-linejoin:miter;stroke-dasharray:none;paint-order:fill markers stroke"
         id="circle90"
         cx="194.99704"
         cy="11.486688"
         r="5.2916665" /><circle
         style="display:inline;fill:#ffccaa;fill-opacity:1;stroke:none;stroke-width:1.465;stroke-linecap:square;stroke-linejoin:miter;stroke-dasharray:none;paint-order:fill markers stroke"
         id="circle91"
         cx="194.99704"
         cy="11.486688"
         r="3.96875" /><path
         fill="currentColor"
         d="m 194.99556,8.4513209 c 0.0549,0 0.10968,0.01192 0.15975,0.03458 l 2.24612,0.9525747 c 0.26229,0.1108747 0.45781,0.3695847 0.45662,0.6819434 -0.006,1.182671 -0.49238,3.34653 -2.54656,4.330102 -0.1991,0.09538 -0.43039,0.09538 -0.62949,0 -2.05536,-0.983572 -2.5406,-3.147431 -2.54655,-4.330102 -0.001,-0.3123587 0.19432,-0.5710687 0.45661,-0.6819434 l 2.24493,-0.9525747 c 0.0501,-0.02265 0.10372,-0.03458 0.15857,-0.03458 z m 0,0.7963947 v 4.5077414 c 1.64524,-0.796395 2.08755,-2.560865 2.09828,-3.617162 l -2.09828,-0.8893874 v 0 z"
         id="path91"
         style="display:inline;fill:#ff6600;fill-opacity:1;stroke-width:0.0119221" /></g></g><g
     inkscape:groupmode="layer"
     id="g30"
     inkscape:label="Reporting"><circle
       style="display:inline;fill:#0044aa;fill-opacity:1;stroke:none;stroke-width:1.95333;stroke-linecap:square;stroke-linejoin:miter;stroke-dasharray:none;paint-order:fill markers stroke"
       id="circle49"
       cx="180.70973"
       cy="11.486688"
       r="5.2916665" /><circle
       style="display:inline;fill:#b3d2ff;fill-opacity:1;stroke:none;stroke-width:1.465;stroke-linecap:square;stroke-linejoin:miter;stroke-dasharray:none;paint-order:fill markers stroke"
       id="circle50"
       cx="180.70973"
       cy="11.486688"
       r="3.96875" /><text
       xml:space="preserve"
       style="font-size:6.35px;line-height:1.25;font-family:Arimo;-inkscape-font-specification:'Arimo, Normal';font-variant-ligatures:none;letter-spacing:0px;word-spacing:0px;display:inline;fill:#0044aa;fill-opacity:1;stroke-width:0.264583"
       x="178.49879"
       y="5.3770041"
       id="text50"><tspan
         id="tspan50"
         style="font-style:normal;font-variant:normal;font-weight:bold;font-stretch:normal;font-size:6.35px;font-family:Arimo;-inkscape-font-specification:'Arimo Bold';text-align:end;text-anchor:end;fill:#0044aa;fill-opacity:1;stroke-width:0.264583"
         x="178.49879"
         y="5.3770041"
         sodipodi:role="line">Paper</tspan></text><path
       fill="currentColor"
       d="m 178.3778,9.1550486 c 0,-0.4286817 0.34853,-0.7772134 0.77721,-0.7772134 h 1.81553 c 0.20644,0 0.40439,0.08136 0.55012,0.2270927 l 1.29333,1.2945444 c 0.14572,0.1457277 0.22709,0.3436747 0.22709,0.5501187 v 3.368736 c 0,0.42868 -0.34853,0.777214 -0.77721,0.777214 h -3.10886 c -0.42868,0 -0.77721,-0.348534 -0.77721,-0.777214 z m 2.52594,-0.06679 v 1.1354594 c 0,0.161514 0.12994,0.291457 0.29146,0.291457 h 1.13546 z m -1.06867,2.3984294 c -0.16151,0 -0.29145,0.129944 -0.29145,0.291458 0,0.161513 0.12994,0.291451 0.29145,0.291451 h 1.74874 c 0.16151,0 0.29145,-0.129938 0.29145,-0.291451 0,-0.161514 -0.12994,-0.291458 -0.29145,-0.291458 z m 0,1.165824 c -0.16151,0 -0.29145,0.129937 -0.29145,0.291451 0,0.161514 0.12994,0.291457 0.29145,0.291457 h 1.74874 c 0.16151,0 0.29145,-0.129943 0.29145,-0.291457 0,-0.161514 -0.12994,-0.291451 -0.29145,-0.291451 z"
       id="path1-0"
       style="display:inline;fill:#0044aa;fill-opacity:1;stroke-width:0.0121439" /><text
       xml:space="preserve"
       style="font-size:6.35px;line-height:1.25;font-family:Arimo;-inkscape-font-specification:'Arimo, Normal';font-variant-ligatures:none;letter-spacing:0px;word-spacing:0px;display:inline;fill:#0044aa;fill-opacity:1;stroke-width:0.264583"
       x="194.6927"
       y="37.749336"
       id="text50-1"><tspan
         id="tspan50-5"
         style="font-style:normal;font-variant:normal;font-weight:bold;font-stretch:normal;font-size:6.35px;font-family:Arimo;-inkscape-font-specification:'Arimo Bold';text-align:end;text-anchor:end;fill:#0044aa;fill-opacity:1;stroke-width:0.264583"
         x="194.6927"
         y="37.749336"
         sodipodi:role="line">Submission</tspan></text><text
       xml:space="preserve"
       style="font-size:6.35px;line-height:1.25;font-family:Arimo;-inkscape-font-specification:'Arimo, Normal';font-variant-ligatures:none;letter-spacing:0px;word-spacing:0px;display:inline;fill:#ff0000;fill-opacity:1;stroke-width:0.264583"
       x="189.8284"
       y="29.021297"
       id="text67"><tspan
         id="tspan67"
         style="font-style:normal;font-variant:normal;font-weight:bold;font-stretch:normal;font-size:6.35px;font-family:Arimo;-inkscape-font-specification:'Arimo Bold';text-align:end;text-anchor:end;fill:#ff0000;fill-opacity:1;stroke-width:0.264583"
         x="189.8284"
         y="29.021297"
         sodipodi:role="line">Desk rejection</tspan></text><text
       xml:space="preserve"
       style="font-size:6.35px;line-height:1.25;font-family:Arimo;-inkscape-font-specification:'Arimo, Normal';font-variant-ligatures:none;letter-spacing:0px;word-spacing:0px;display:inline;fill:#0044aa;fill-opacity:1;stroke-width:0.264583"
       x="187.81357"
       y="51.507679"
       id="text71"><tspan
         id="tspan71"
         style="font-style:normal;font-variant:normal;font-weight:bold;font-stretch:normal;font-size:6.35px;font-family:Arimo;-inkscape-font-specification:'Arimo Bold';text-align:end;text-anchor:end;fill:#0044aa;fill-opacity:1;stroke-width:0.264583"
         x="187.81357"
         y="51.507679"
         sodipodi:role="line">Reformat</tspan></text><text
       xml:space="preserve"
       style="font-size:6.35px;line-height:1;font-family:Arimo;-inkscape-font-specification:'Arimo, Normal';font-variant-ligatures:none;letter-spacing:0px;word-spacing:0px;white-space:pre;inline-size:29.8638;display:inline;fill:#ff6600;fill-opacity:1;stroke-width:0.264583"
       x="127.59189"
       y="37.487965"
       id="text76"
       transform="translate(-61.382758,-2.38125)"><tspan
         x="127.59189"
         y="37.487965"
         id="tspan6"><tspan
           style="font-weight:bold;-inkscape-font-specification:'Arimo Bold';text-align:center;text-anchor:middle"
           id="tspan5">Peer </tspan></tspan><tspan
         x="127.59189"
         y="43.837963"
         id="tspan8"><tspan
           style="font-weight:bold;-inkscape-font-specification:'Arimo Bold';text-align:center;text-anchor:middle"
           id="tspan7">review</tspan></tspan></text><text
       xml:space="preserve"
       style="font-size:6.35px;line-height:1.25;font-family:Arimo;-inkscape-font-specification:'Arimo, Normal';font-variant-ligatures:none;letter-spacing:0px;word-spacing:0px;display:inline;fill:#ff0000;fill-opacity:1;stroke-width:0.264583"
       x="34.253399"
       y="23.72963"
       id="text77"><tspan
         id="tspan77"
         style="font-style:normal;font-variant:normal;font-weight:bold;font-stretch:normal;font-size:6.35px;font-family:Arimo;-inkscape-font-specification:'Arimo Bold';text-align:end;text-anchor:end;fill:#ff0000;fill-opacity:1;stroke-width:0.264583"
         x="34.253399"
         y="23.72963"
         sodipodi:role="line">Rejection</tspan></text><text
       xml:space="preserve"
       style="font-size:6.35px;line-height:1.25;font-family:Arimo;-inkscape-font-specification:'Arimo, Normal';font-variant-ligatures:none;letter-spacing:0px;word-spacing:0px;display:inline;fill:#338000;fill-opacity:1;stroke-width:0.264583"
       x="22.053007"
       y="35.043877"
       id="text82"><tspan
         id="tspan82"
         style="font-style:normal;font-variant:normal;font-weight:bold;font-stretch:normal;font-size:6.35px;font-family:Arimo;-inkscape-font-specification:'Arimo Bold';text-align:end;text-anchor:end;fill:#338000;fill-opacity:1;stroke-width:0.264583"
         x="22.053007"
         y="35.043877"
         sodipodi:role="line">Revise</tspan></text></g><g
     inkscape:groupmode="layer"
     id="g27"
     inkscape:label="Research"><g
       id="g44"
       transform="translate(-14.81667,-26.051067)"
       style="display:inline"><circle
         style="display:inline;fill:#b3d2ff;fill-opacity:1;stroke:none;stroke-width:1.465;stroke-linecap:square;stroke-linejoin:miter;stroke-dasharray:none;paint-order:fill markers stroke"
         id="circle44"
         cx="115.58984"
         cy="37.537758"
         r="3.96875" /><path
         fill="currentColor"
         d="m 110.2651,37.537761 c 0,-2.941089 2.38366,-5.324742 5.32474,-5.324742 2.94109,0 5.32474,2.383653 5.32474,5.324742 0,2.941086 -2.38365,5.324739 -5.32474,5.324739 -2.94108,0 -5.32474,-2.383653 -5.32474,-5.324739 z m 3.9166,-2.265096 c -0.15808,0.08736 -0.25584,0.255838 -0.25584,0.434715 v 3.660759 c 0,0.180958 0.0978,0.347356 0.25584,0.434715 0.15807,0.08736 0.34943,0.08529 0.50543,-0.01045 l 2.99517,-1.830379 c 0.14768,-0.09152 0.23919,-0.251678 0.23919,-0.426396 0,-0.174719 -0.0915,-0.334877 -0.23919,-0.426396 l -2.99517,-1.830377 c -0.15391,-0.09359 -0.34736,-0.09776 -0.50543,-0.01045 z"
         id="path1-4"
         style="fill:#0044aa;fill-opacity:1;stroke-width:0.0207996" /></g><circle
       style="display:inline;fill:#0044aa;fill-opacity:1;stroke:none;stroke-width:1.95333;stroke-linecap:square;stroke-linejoin:miter;stroke-dasharray:none;paint-order:fill markers stroke"
       id="circle45"
       cx="142.61024"
       cy="11.486688"
       r="5.2916665" /><circle
       style="display:inline;fill:#b3d2ff;fill-opacity:1;stroke:none;stroke-width:1.465;stroke-linecap:square;stroke-linejoin:miter;stroke-dasharray:none;paint-order:fill markers stroke"
       id="circle46"
       cx="142.61024"
       cy="11.486688"
       r="3.96875" /><text
       xml:space="preserve"
       style="font-size:6.35px;line-height:1.25;font-family:Arimo;-inkscape-font-specification:'Arimo, Normal';font-variant-ligatures:none;letter-spacing:0px;word-spacing:0px;display:inline;fill:#0044aa;fill-opacity:1;stroke-width:0.264583"
       x="140.39931"
       y="5.3770041"
       id="text46"><tspan
         id="tspan46"
         style="font-style:normal;font-variant:normal;font-weight:bold;font-stretch:normal;font-size:6.35px;font-family:Arimo;-inkscape-font-specification:'Arimo Bold';text-align:end;text-anchor:end;fill:#0044aa;fill-opacity:1;stroke-width:0.264583"
         x="140.39931"
         y="5.3770041"
         sodipodi:role="line">Analysis</tspan></text><path
       fill="currentColor"
       d="m 142.69922,16.956883 c 2.97212,0 5.38093,-2.408807 5.38093,-5.38093 0,-2.9721231 -2.40881,-5.3809296 -5.38093,-5.3809296 -2.97212,0 -5.38093,2.4088065 -5.38093,5.3809296 0,2.972123 2.40881,5.38093 5.38093,5.38093 z m -1.34523,-7.3987787 h 2.69046 c 0.37204,0 0.67262,0.300574 0.67262,0.6726157 v 2.690466 c 0,0.37204 -0.30058,0.672616 -0.67262,0.672616 h -2.69046 c -0.37204,0 -0.67262,-0.300576 -0.67262,-0.672616 V 10.23072 c 0,-0.3720417 0.30058,-0.6726157 0.67262,-0.6726157 z"
       id="path1-1"
       style="display:inline;fill:#0044aa;fill-opacity:1;stroke-width:0.0210192" /></g><g
     inkscape:groupmode="layer"
     id="layer3"
     inkscape:label="Planning"
     style="display:inline"><circle
       style="display:inline;fill:#0044aa;fill-opacity:1;stroke:none;stroke-width:1.95333;stroke-linecap:square;stroke-linejoin:miter;stroke-dasharray:none;paint-order:fill markers stroke"
       id="circle42"
       cx="85.989586"
       cy="11.486688"
       r="5.2916665" /><circle
       style="display:inline;fill:#b3d2ff;fill-opacity:1;stroke:none;stroke-width:1.465;stroke-linecap:square;stroke-linejoin:miter;stroke-dasharray:none;paint-order:fill markers stroke"
       id="circle43"
       cx="85.989586"
       cy="11.486688"
       r="3.96875" /><path
       fill="currentColor"
       d="m 84.876187,9.2601026 c -0.30706,0 -0.556709,0.2496487 -0.556709,0.5567097 v 3.6186137 c 0,0.100033 0.05393,0.193107 0.140917,0.24182 0.08699,0.04872 0.193982,0.04784 0.280092,-0.0036 l 1.249124,-0.748949 1.248244,0.748949 c 0.0861,0.05133 0.193107,0.05307 0.280097,0.0036 0.087,-0.04958 0.14178,-0.141787 0.14178,-0.24182 V 9.8168123 c 0,-0.307061 -0.24965,-0.5567097 -0.556707,-0.5567097 z"
       id="path43"
       style="display:inline;fill:#0044aa;fill-opacity:1;stroke-width:0.00869854" /><text
       xml:space="preserve"
       style="font-size:6.35px;line-height:1.25;font-family:Arimo;-inkscape-font-specification:'Arimo, Normal';font-variant-ligatures:none;letter-spacing:0px;word-spacing:0px;display:inline;fill:#0044aa;fill-opacity:1;stroke-width:0.264583"
       x="83.778633"
       y="5.3770041"
       id="text43"><tspan
         id="tspan43"
         style="font-style:normal;font-variant:normal;font-weight:bold;font-stretch:normal;font-size:6.35px;font-family:Arimo;-inkscape-font-specification:'Arimo Bold';text-align:end;text-anchor:end;fill:#0044aa;fill-opacity:1;stroke-width:0.264583"
         x="83.778633"
         y="5.3770041"
         sodipodi:role="line">Design</tspan></text></g><g
     inkscape:groupmode="layer"
     id="g24"
     inkscape:label="Inception"
     style="display:inline"><g
       id="g34"
       transform="translate(-5.291667,-25.929177)"
       style="display:inline"><circle
         style="display:inline;opacity:1;fill:#0044aa;fill-opacity:1;stroke:none;stroke-width:1.95333;stroke-linecap:square;stroke-linejoin:miter;stroke-dasharray:none;paint-order:fill markers stroke"
         id="circle34"
         cx="46.831249"
         cy="37.415871"
         r="5.2916665" /><circle
         style="display:inline;opacity:1;fill:#b3d2ff;fill-opacity:1;stroke:none;stroke-width:1.465;stroke-linecap:square;stroke-linejoin:miter;stroke-dasharray:none;paint-order:fill markers stroke"
         id="path34"
         cx="46.831249"
         cy="37.415871"
         r="3.96875" /></g><path
       fill="currentColor"
       d="m 40.42616,9.2601026 c -0.307061,0 -0.55671,0.2496487 -0.55671,0.5567097 v 3.6186137 c 0,0.100033 0.05393,0.193107 0.140917,0.24182 0.08699,0.04872 0.193978,0.04784 0.280095,-0.0036 l 1.249117,-0.748949 1.248248,0.748949 c 0.08612,0.05133 0.193108,0.05307 0.280095,0.0036 0.08699,-0.04958 0.141787,-0.141787 0.141787,-0.24182 V 9.8168123 c 0,-0.307061 -0.24965,-0.5567097 -0.55671,-0.5567097 z"
       id="path1-7"
       style="display:inline;fill:#0044aa;fill-opacity:1;stroke-width:0.00869854" /><text
       xml:space="preserve"
       style="font-size:6.35px;line-height:1.25;font-family:Arimo;-inkscape-font-specification:'Arimo, Normal';font-variant-ligatures:none;letter-spacing:0px;word-spacing:0px;display:inline;fill:#0044aa;fill-opacity:1;stroke-width:0.264583"
       x="39.328594"
       y="5.3770041"
       id="text35"><tspan
         id="tspan35"
         style="font-style:normal;font-variant:normal;font-weight:bold;font-stretch:normal;font-size:6.35px;font-family:Arimo;-inkscape-font-specification:'Arimo Bold';text-align:end;text-anchor:end;fill:#0044aa;fill-opacity:1;stroke-width:0.264583"
         x="39.328594"
         y="5.3770041"
         sodipodi:role="line">Hypothesis</tspan></text><path
       style="display:inline;fill:#0044aa;fill-opacity:1;stroke:#0044aa;stroke-width:0.998238;stroke-linecap:butt;stroke-linejoin:miter;stroke-dasharray:none;stroke-opacity:1"
       d="M 41.539582,0.91166115 V 6.4828094"
       id="path42"
       sodipodi:nodetypes="cc" /><path
       style="display:inline;fill:#0044aa;fill-opacity:1;stroke:#0044aa;stroke-width:0.998238;stroke-linecap:butt;stroke-linejoin:miter;stroke-dasharray:none;stroke-opacity:1"
       d="M 85.989586,0.91166115 V 6.4828094"
       id="path59"
       sodipodi:nodetypes="cc" /><path
       style="display:inline;fill:#0044aa;fill-opacity:1;stroke:#0044aa;stroke-width:0.998238;stroke-linecap:butt;stroke-linejoin:miter;stroke-dasharray:none;stroke-opacity:1"
       d="M 142.69922,0.91166115 V 6.4828094"
       id="path60"
       sodipodi:nodetypes="cc" /><path
       style="display:inline;fill:#0044aa;fill-opacity:1;stroke:#0044aa;stroke-width:0.998238;stroke-linecap:butt;stroke-linejoin:miter;stroke-dasharray:none;stroke-opacity:1"
       d="M 180.70944,0.91166115 V 6.4828094"
       id="path61"
       sodipodi:nodetypes="cc" /><path
       style="display:inline;fill:#0044aa;fill-opacity:1;stroke:#0044aa;stroke-width:0.998238;stroke-linecap:butt;stroke-linejoin:miter;stroke-dasharray:none;stroke-opacity:1"
       d="M 231.51051,0.91166115 V 6.4828094"
       id="path62"
       sodipodi:nodetypes="cc" /></g></svg>
